/* XPM */
static const char *YXhlLXJlbW92ZWJnLXByZXZpZXc_[] = {
/* columns rows colors chars-per-pixel */
"64 64 200 2 ",
"   c #070405",
".  c #090607",
"X  c #090708",
"o  c #0D0B0C",
"O  c #0C0807",
"+  c #110D0E",
"@  c #11100E",
"#  c #19160F",
"$  c #0F0A10",
"%  c #120E11",
"&  c #170E14",
"*  c #141314",
"=  c #191616",
"-  c #161816",
";  c #1A1916",
":  c #16151A",
">  c #191719",
",  c #1C1C1C",
"<  c #201E1E",
"1  c #1F201D",
"2  c #22211E",
"3  c #28231F",
"4  c #171625",
"5  c #1B1322",
"6  c #1E1C21",
"7  c #1C1A2A",
"8  c #191B34",
"9  c #211F21",
"0  c #281E22",
"q  c #231D2A",
"w  c #291E2C",
"e  c #251E35",
"r  c #1D2125",
"t  c #242323",
"y  c #292626",
"u  c #262825",
"i  c #292926",
"p  c #26242A",
"a  c #292729",
"s  c #26282B",
"d  c #2B2A2A",
"f  c #302825",
"g  c #34262D",
"h  c #302E2F",
"j  c #32312E",
"k  c #242331",
"l  c #2B2533",
"z  c #2D2B32",
"x  c #2F263C",
"c  c #302E32",
"v  c #342C3C",
"b  c #323132",
"n  c #3A3334",
"m  c #36353C",
"M  c #3B343C",
"N  c #3D3B3C",
"B  c #42363A",
"V  c #403533",
"C  c #2D2E40",
"Z  c #3A3445",
"A  c #3B3841",
"S  c #3C385A",
"D  c #373660",
"F  c #3B396A",
"G  c #483C40",
"H  c #443D4B",
"J  c #4E3A4D",
"K  c #443843",
"L  c #443C53",
"P  c #483956",
"I  c #4C4345",
"U  c #44424A",
"Y  c #4C464B",
"T  c #4C4A4C",
"R  c #474843",
"E  c #524C4C",
"W  c #524348",
"Q  c #4F504B",
"!  c #4A4554",
"~  c #4D4952",
"^  c #4F435D",
"/  c #464657",
"(  c #554356",
")  c #544C54",
"_  c #5A4E52",
"`  c #524A5C",
"'  c #574758",
"]  c #535253",
"[  c #5C5557",
"{  c #52505B",
"}  c #5B5B5C",
"|  c #5D5558",
" . c #664F5F",
".. c #62545A",
"X. c #635D5D",
"o. c #6D5F5E",
"O. c #67645F",
"+. c #4D4262",
"@. c #474069",
"#. c #484767",
"$. c #544B63",
"%. c #544B6B",
"&. c #594F68",
"*. c #565261",
"=. c #5A5265",
"-. c #5D5A63",
";. c #5D5769",
":. c #474477",
">. c #534572",
",. c #554E77",
"<. c #5B5779",
"1. c #635A63",
"2. c #635E6C",
"3. c #695A65",
"4. c #5F6062",
"5. c #646464",
"6. c #686667",
"7. c #686866",
"8. c #6C6C6A",
"9. c #67646D",
"0. c #706569",
"q. c #7C6C6D",
"w. c #77646A",
"e. c #6C6475",
"r. c #6A6678",
"t. c #726E7C",
"y. c #6F7170",
"u. c #727372",
"i. c #767877",
"p. c #74717D",
"a. c #78757C",
"s. c #797A7B",
"d. c #77787A",
"f. c #807F7B",
"g. c #81817F",
"h. c #504E80",
"j. c #5B5887",
"k. c #65678D",
"l. c #726985",
"z. c #776C8D",
"x. c #7A7681",
"c. c #716E9D",
"v. c #7C7294",
"b. c #837D8B",
"n. c #807595",
"m. c #848483",
"M. c #888886",
"N. c #87878A",
"B. c #89868E",
"V. c #8C8C8D",
"C. c #8A8393",
"Z. c #8E8D93",
"A. c #8B829A",
"S. c #928E96",
"D. c #918D99",
"F. c #949494",
"G. c #989697",
"H. c #96959A",
"J. c #9A9A9A",
"K. c #989896",
"L. c #978EAB",
"P. c #988FAE",
"I. c #9187AA",
"U. c #9D9BA6",
"Y. c #9B93AA",
"T. c #9D98A8",
"R. c #9E95B2",
"E. c #A09AA6",
"W. c #A09CAC",
"Q. c #A59CB5",
"!. c #A99EBE",
"~. c #A4A3A4",
"^. c #A6A4AB",
"/. c #A8A7AE",
"(. c #ACACAC",
"). c #A7A8A3",
"_. c #AFB0AB",
"`. c #B1B2AF",
"'. c #A7A3B0",
"]. c #ABA6B3",
"[. c #ADACB1",
"{. c #ABA4BA",
"}. c #B0AEB5",
"|. c #B2AFBA",
" X c #B3B3B3",
".X c #B5B3BA",
"XX c #BBBBBC",
"oX c #C0C1BD",
"OX c #ACA1C3",
"+X c #B5ACCA",
"@X c #BAB3C4",
"#X c #BDBCC1",
"$X c #B8B0C8",
"%X c #B7B0C2",
"&X c #C2BBCD",
"*X c #C3C3C2",
"=X c #CCCCCB",
"-X c #C7C5CD",
";X c #D0CFD5",
":X c #CAC6D4",
/* pixels */
", t t t t t 1 > > t , 1 > - t > < t t t t t t 6 > t 9 9 , > 9 > , t t t t p t 6 > t t t , ; 2 > , t t t t t t , > t , , , > t , ",
", t t , , r , > * > - > - * > * < 2 t t < t 9 , * , > , > * > % , 6 t 6 6 t t , * > - > ; * ; @ t t t t t t t 9 + > = > > * > * ",
"t t t , , t t , > t t t t t t > < t t < < t 9 , > t 9 t y t t ; , t t , , r t , > t t t t t t ; , , , > , , , , > t 9 t y t t > ",
"t t t t , t t , t d t d b d b t 9 t t 9 < t t 6 t d y d b d j t t t t t , t r , t d t d b d d t , t t < < t t < t d y d h d h t ",
"> , t , , , > - t t t t t t d t , 9 < , , , , > < y < t i y d < ; 1 t , , , , - t t , t d t d , > , 9 < < 9 , > t d 9 t t t d 9 ",
"* > , , , > - * t d t t t t d t : , , > > > > - t d t t i t d t * ; , > > > > * t d t t d t d t * = , > , , = * t d t t t t d t ",
", t t t t t , > t d t d u t d t > 6 t t t t , - 2 d y i y t d t > 1 2 , , 2 2 , 2 d t d d t s t 9 t t t t t t < t d t d y t d t ",
"d d d d d d d t * , , , > - > * t d z c d d t 2 @ , , , , * , * t d d i i d d d @ , , , > - > * t y t t t t t t + , , , > * , * ",
"t t t t t d t , > 1 t t t t , > 9 z d c d d d , - < , , < 9 9 > t t p p t i d t , 2 t , , t t , t t t , , t t t - , < , , 9 9 , ",
"t t t t t d t t , t t t t t t , * t 9 < t t t o 2 t a a 9 t p 9 9 t p t t d d , 2 t t t t t t t t t t < , t t 9 , t t t t t t t ",
"t t t t d d t t , , 1 , , , , , t d t t t t i 2 > < t > 9 q 5 q p t t t d d t u ; , , > > , , > 9 t t t t t t t , 9 < , > , 9 9 ",
"- > > > , , > * t t t t t t t t t d t d d d j t 9 9 p q z ) ! l : , 6 > > , , * , t t t t t t 6 * > , > > , > - 9 t t t < t t t ",
"- , , , , t > - > , , > > , , > , d t t t t i , , t q c r.].Q.r.l 6 : , , t , * > , t , , t 6 , - , , , , 9 , > > , t t < < , > ",
"t t t t t d t t * - > - - > - * t i t d d 2 i d b -.9.b.%X$XY.A.t.U p p a t t t @ * > - - > - * , t t t t y t < o - , , > > - * ",
"> , , , , , , > , t t t t t t , t d t d i d } m.G.J.].&X&XY.l.e.t.-.m 6 , t , - , t t t t t t , > , , , , , , = > t t t t t t t ",
", t t , , t t r - , t t t t , - * > ; b } m. XXX~.[.-X:X'.e.Z l l A c 6 q p , , t i d d d d d t t t t t t t t < < t a t t d d a ",
", 9 9 , , < , > X o -   % o > o X > 7.F.).`.=X(.~.}.;X-Xa.z z 6 > t y < l l q , t d t u t t d t > , 9 , , 9 , > t t t 9 t d d t ",
"- > > > > > = * o + - X * * , + o d M. X_.oX-XJ.J.#X=X(.] d d t > y E | ! v 5 * t d t u d t d t % > > - - > > % t t t t t d d t ",
", 9 t t t t , > X o *   o % - o o o 5.(. X=X XM.J. XXX(.] d d 2 , N X.I l L l , < i t i d t d t = < t 9 9 t < = t t a y d d d t ",
"t d h d d d d t X o + . o + o o X > 7.(.oX=X).g.F.J.).J.} 1 ; > } 8.O.h l *.l t * , ; , , > , * 9 d h d d h d 9 * > , > , , , - ",
"t y d d d d t , * * * * * - * = N u.J.(.*X=X(.M.m.F.F.F.g.d , Q F.G.f.E ` t.v 6 : 2 , 1 r , 9 - , t d a a d t , - , , , , , , > ",
", 9 t t t t , > - = - > - , * t Z..X X X=X=XXX(.J.H.V.F.J.u.8.K.N.m.V.F.D.b.Z > t d t u t t d 9 - < t 9 9 t < - < t y t t t t t ",
"t t t t t t t , - - * , * > * d J. X(..X-XXXXXXX X^.H.N.N.J.~.F.8.s.F.~.T.C.*.6 > t , , , > 9 ; , t t t t t t , > , 9 , > , , , ",
"a d d a a d d t > = * , * > * b V.(.(.XXXXXXXX}.[.^.^.H.Z.V.V.s.-.i.F.).E.b.2.p 6 t , 1 6 , t , t d d t t d d t , t t < , < t 9 ",
"t t t t y d t , > - , > * * * [  X X(.*XoXXXXX.X[.[.^.].U.Z.Z.x.5.y.N./.^.x.*.k , t t t 6 , t 2 t a t t y t d , > t 9 9 , > t , ",
"t t t t a d t , - * = - * * - X.XX.X`.*X*XXX#X.X'.^.Z.t.9.t.x.p.d.s.Z.^.E.t.$.q * , - , , : , * t d y d d d d t * , > , > - , * ",
"t t y y d d t , * * = - - * > 6.XX X.X*X*XXX#X.X^.p.~ H ! ! ! { 4.s.H.^.S.2.! l 6 t 1 t i t t > < y t y a t a , , y t a d t y , ",
"- > , , , , > % % * - * * % * 5..X`.XX*X*X#X#X/.t.` { 2.*.*.-.} T } a.B.e.=.` 5 a d u d b z j 2 - , > < < , < * a c d h b h b t ",
"> , , , , < , * o * * + o o * ] .X XXXXX*X#X.XH.-.! k 7 z z z s T } -.` H Z $.x t d 2 t p p d 1 = t , 9 9 , t = t a 9 t t t d < ",
"t t y t t t t < * = - o X o * T  X`.(..X*XXX.XB.~ z 6 p p 6 s t t m 1.2.1.H &.e p d t u p p d t , t 9 t t , t , t d t t t t d t ",
", < , > > , , > % > - o X * * N (.(.^..X#XXX.XS.m z z z t t d 2 > 6 q l | ` ^ x p d i d s p d t , t < 9 , , t , t d a d a t d t ",
"t t t , , 9 t 9 . * * o   + o d ). X)..X#X.X%XT.p.e.2.U t > ; * ; t p q ! ;.+.P & , > , , : , * , t , , , > t < % , , < , - , - ",
"> t , < , > t , > t , t t , t u J. X^..X@X@X{.Q.R.A.r.;.z 9 , ; ; < t r C r.@.%.q 9 t , r s t - , < t t < > = , > 9 t , , , 9 , ",
"* , > , > - , - , t , t t , t t m.[.^.[.$X$X+X!.n.%.=.` p p t t * < - 6 k <.,.%.q p 1 , , i t - % * - - * * * % < t y t t t t t ",
"> t t t t t t > > t > > , > t , 7..X}.W.Q.+XOXz.$.*.l > > , p > > p 6 d z 2.&.+.q * o o o : * O   o o o o * * o > , t , , , , , ",
"t d t d d d d t , t t t t t t , R (.|.T.P.I.z.%.` q t t < t 6 p q z p d j 1.` P H % @ o * > = + . + + X o > = o , t t t 9 t t 9 ",
"t d t t u t d r - r , , , , t * j F.|.Y.P.v.&.^ 5 0 < ; 3 , 6 > q l 9 2 f I 1.J ( w % + : , > * o * % X o > - o > < t < , < < , ",
"t d t t t t d t * > > , , > , @ t 5..X{.L.l.$.x & , , # ; = - % q z < 3 3 n q...J K +   $ % % + o + o X o * * X * > , > > > > - ",
"1 d t t t t d t t d t d d t d t 6 M D.W.C.2.H q q 9 d y y d y < 9 d 2 i t y o.w.( J g + & : : % o + + + o + * * < y d d y a t t ",
"o > > , > - , * t d t d t t d t : 6 q a Y ~ p > p d a y y y y y % < , , , * V q. .J ( 5 : : 6 - * * * = - * = , t d h d d d d t ",
"> 1 t t t t , > t t t t t t t r > q , 9 n n t > t a t p a t i < ; , < 1 9 > y _ w.( P P 5 , * : % > % > * > % , t y t d d t d t ",
"t t t t t t t t t t , > > , t t 9 a p t i i t t p z p a s y d 2 < 2 t t a a 0 g 3.3.>.>.e * * - % > % > * > * , 9 t 9 t t 9 y t ",
"r t , > > , 1 , t t t , , t t t , t , ; ; , , < 9 a q t p t y , ; 1 t , 6 9 > & < r.j.:.#.p o * @ , * > * , * , t d t d d t d t ",
"t t t , , t t t * > , , t t , - 9 2 2 , < t t , > t , 9 9 , t > , t t t 9 9 < < * Z c.:.S / , = + , * = * , * , * > - > > - , * ",
"> , , , > , , > * > 1 t t t , - ; , 2 2 , , , - > t t t t 9 t , , , , , 6 < < = % 7 <.j.:.#.q * o , * - % , * > , d t d d y d t ",
"* - > > > > - o t t t t t t t t @ * , , > > - + t d d h d d d t * > > > : > ; + % 4 8 k.:.D L * o , * * o > * - , d y d d a d 9 ",
", t t t t t t , , t , > > , , , < t t t y d t , , d d d d t d t < a a t t t i t + * 4 <.h.F / : o , * * o = o * 9 h d d d d b t ",
"t d d d d d t t > t t t t t , > t d d y a d t t - t 9 t 2 , 2 ; y a p s d d d t @ = > S <.S S z o , * % X - o o * t < < 9 9 t - ",
"t y t t t d d t > t , , , , t > t d t t t t d t , t t , , t t , y d 9 t d d d , % = > 9 e.( M E * - * X X o o X - , t t , , , > ",
"t a d t y d d t % , > > > > , * t d d d d d d t t t t t t t t t t d 9 t d a d , O * ; < X.| B G < o * % X o o X > t t t t t t , ",
", t t 9 t t t , = t t t t t t = , t t t t t t , > , , , , , , > t d t a d d d < 9 t 0 0 _ 0.W B Y t t t , t t > - , t , > , , > ",
"> , , , , 9 , - 9 h d h h d h 9 - , > , , > , - , t t t t t t , - , = , , , , * t a h h W 0...I T t t t , t t > , t t 1 , t t t ",
", 9 t < t t < > , d d d d d d , - t , t t , t - > , 1 , , , , > - , > , , , 9 - t t t < y G _ E d , t t t t , , > , t , > , , , ",
"9 t t 9 t t t > - t t t t t t - > t 1 t t , t , * - > > > > - * 9 a t t t t a 9 t y y y a a n h > , t , t t , 1 * > , - - - > - ",
"< t < , , t < > , a t t t t a , > t , t t , t > 1 t u t t t t , > t > , > > t > t a t d d y t t , t , , , t t , t t d t t t t t ",
"t t 9 , , t 9 > t h d d d d h t , t , , , , t , t d d d d d d t < y , , , , t t % > , < , > + , > t t t , , t , t d d d d d d t ",
"> , < , , , , > t d , t a a d , - t t t , > , > t d t t t t d t = t < t , > < > > t y t t y t > - t t t , > t > t t t t t t d t ",
"* = > - - = - * t d t t a y d < * , - > - - > * t d t t d t d t % > - > > * > % t d h d d h d t * > - > > - > * t u t t t t t t ",
"9 t t t t t t , t d t d d t d t , t t t t t t , t d t d d t d t , t < t t t y , 9 d d y y d d 9 , t t t t t t , t d d u t d d t ",
"d d h d d d d t % , , , , - , - t d t d d d b t * , > , , > , * t d t d c h b t = 9 t , , t 9 = t d t d d d b t - > , , > , > - ",
"t t t t t t t , * < , t , = , = , t , t t t d , - , > , , > r - , t , t a t a , > t t , , t t > , t , t t t t > - > , , , , , - ",
"t y a t t t t 9 , d t d t t y t t d t t i t d t , d t d t t d t , d t y d t d , , t t 9 9 t t , , t t t d t d , t t t t t t t t ",
"t d d a y d y t > t , , , > 9 > t d t d t t d t - t , , , > t > t d d d d t d t , t t , , t t , t d d d d t d t > , , > , , , , ",
"= , , > > , > - , t , < < , t , * t , , > - , - > t t t , , t , - , , , > - , * > t t , , t t , - t , , > - , - , t t , , t t 1 "
};
