/* XPM */
static const char *YnJpY2tfd2FsbA__[] = {
/* columns rows colors chars-per-pixel */
"64 64 141 2 ",
"   c #77221F",
".  c #7C251F",
"X  c #460C27",
"o  c #4B0E27",
"O  c #460C28",
"+  c #4A0E28",
"@  c #4E1027",
"#  c #4E1128",
"$  c #531226",
"%  c #5B1625",
"&  c #5E1825",
"*  c #531528",
"=  c #5C1A29",
"-  c #601723",
";  c #641A24",
":  c #6B1D22",
">  c #621D28",
",  c #701F21",
"<  c #6C2126",
"1  c #662029",
"2  c #6B2329",
"3  c #742222",
"4  c #7A2521",
"5  c #762827",
"6  c #7C2A25",
"7  c #712629",
"8  c #74292A",
"9  c #7C2D29",
"0  c #81271E",
"q  c #85291E",
"w  c #8B2C1D",
"e  c #922F1B",
"r  c #95311B",
"t  c #9C341A",
"y  c #9E391F",
"u  c #A0371B",
"i  c #A33A1C",
"p  c #A83F1E",
"a  c #832C23",
"s  c #892F21",
"d  c #8B2F20",
"f  c #892F21",
"g  c #802F28",
"h  c #873025",
"j  c #853126",
"k  c #8D3121",
"l  c #8A3224",
"z  c #8C3324",
"x  c #8A3427",
"c  c #8C3325",
"v  c #813029",
"b  c #833128",
"n  c #833229",
"m  c #81322B",
"M  c #82322B",
"N  c #843229",
"B  c #84332A",
"V  c #833129",
"C  c #8B372A",
"Z  c #8C372A",
"A  c #8A3629",
"S  c #8E392A",
"D  c #913220",
"F  c #973620",
"G  c #933523",
"H  c #993720",
"J  c #953925",
"K  c #993821",
"L  c #9E3B21",
"P  c #9B3B25",
"I  c #9B3C24",
"U  c #903929",
"Y  c #933B2A",
"T  c #933C2A",
"R  c #943C2A",
"E  c #953C2A",
"W  c #953D2A",
"Q  c #953D2B",
"!  c #963D2A",
"~  c #973D2A",
"^  c #963E2B",
"/  c #973F2B",
"(  c #923B2A",
")  c #983E29",
"_  c #983F2A",
"`  c #983F2B",
"'  c #9A3F28",
"]  c #A53E20",
"[  c #A63F21",
"{  c #A33E21",
"}  c #AC421F",
"|  c #AB411F",
" . c #9F4027",
".. c #9F4229",
"X. c #9E4129",
"o. c #A04026",
"O. c #A34227",
"+. c #A44225",
"@. c #A74527",
"#. c #A44225",
"$. c #A94020",
"%. c #AA4120",
"&. c #AB4220",
"*. c #AB4221",
"=. c #A94322",
"-. c #AC4320",
";. c #AD4320",
":. c #AD4321",
">. c #AE4320",
",. c #AB4423",
"<. c #AD4421",
"1. c #AF4420",
"2. c #AE4421",
"3. c #AC4423",
"4. c #AE4522",
"5. c #A94525",
"6. c #AC4726",
"7. c #AC4422",
"8. c #AD4826",
"9. c #AE4826",
"0. c #A04329",
"q. c #A34429",
"w. c #A84728",
"e. c #A7482B",
"r. c #AB4B2C",
"t. c #B14721",
"y. c #B24722",
"u. c #B04622",
"i. c #B34822",
"p. c #B44A23",
"a. c #B64A23",
"s. c #B04825",
"d. c #B34A24",
"f. c #B94E25",
"g. c #B94E25",
"h. c #B54F29",
"j. c #BC5127",
"k. c #BC5229",
"l. c #C05327",
"z. c #C25729",
"x. c #C3592C",
/* pixels */
"m m m 8 1 m = O 2 m m 2 $ $ $ $ o O > m m 8 ; : : : : 5 8 @ O # 9 m m m m m m 8 $ O O > m m m m m m m m m 7 O O @ 1 8 1 m 9 & $ ",
":.:.*.l F 2.d 2 5.:.:.y w w w w : m K :.:.2.i t t t t i ] 4 $ m 2.:.:.:.:.:.:.,.j & = O.:.:.:.:.:.:.g.a.:.K ; $ a t L k 2.*.r . ",
"t t t r t t e m 2.t t t t t t t . 0.i t t t t t t t t t t r ; ) i t t t t t t t ] 4 2 s.t t t t t t t t t t   8 *.t t t t t t t ",
"t t t t t t e 9 *.t t r t t t t 4 ..i t t t t t t t t t t t . 4 t t t t t t t t t r 5 *.t t t t t t t t t t   < i t t t t t t t ",
"t t t t t t 0 7 i t r 4 . w t t 4 z t t t t t t t t t t t t . ; t t t t t t t t t w ; r t t t t t t t w r r 3 ; r t r t t t t t ",
"0 0 0 : : : $ # 3 q q 4 $ % : ; $ % : 4 q 0 q 0 0 0 0 0 q : @ $ . q 0 0 0 0 0 : ; $ + : q 0 0 q 4 : ; % ; % @ + ; ; % ; : 0 0 0 ",
"R R R R R R T T Z * + 7 R T R 7 & & % % & $ o & ; 5 R R R R R C % o * b R ) ) R R T R R R Y % O 1 R R R R T T T T T Y ) b @ > R ",
"p p p p p p p p p g ; t p p p t r e 3 3 D . & w r t p p p p a.p e 7 O.i p 2.u.p p p } i.p p q ; @.p u.:.p p p p p p p i.p : w p ",
"t t t t t t t t t 4 : t t t t t t t . P p 0 ; r t t t t t t t t t 5 #.t t t t t t t t t t t t 5 9.t t t t t t t t t t t t 3 w t ",
"t t t t t t t t t 4 3 t t t t t t t t t t q ; r t t t t t t t t t : a t t t t t t t t t t t t 5 6.t t t t t t t t t t t t 3 4 t ",
"t t t t t t t r w ; . t t t t t t t t r t . : t t t t t t t r t r ; w t t t t t t t t t t t w : d t t t t t t t t t t t t : x i ",
"3 3 3 3 4 4 4 ; & o $ 3 3 3 3 3 3 4 4 ; 3 % $ 3 4 4 4 3 3 : & 3 ; # ; 4 4 4 4 4 4 4 4 3 3 3 % # $ < 4 3 3 3 3 3 3 3 3 3 : + 1 a ",
"j b = 2 q.@.@.@.O.w w w 0 : ; o 9 @.@.@.@.@.@.@.@.@.' 3 : : : & $ c @.@.@.@.@.@.@.@.R & $ C @.@.@.@.z : : : - & $ @ & : : 3 ' @.",
"t i a 0.i u u u u t t t t t w % l u u u u u u u u u t t t t t w : t u u u u u u u u t r : G t u u u t t e . c O.5 : t t t t t u ",
"t t 4 q.u t t t t t t t t t w > O.t t t t t t t t t t t t t y q 3 t t t t t t t t t t t & : t t t t t t J J *.p 4 : t t t t t t ",
"t t 3 G u t t t t t t w t t w % g t t t t t t t t t t t t t =.9 : t t t t t t t t t t r : w t t t t t i 2.*.t t q : t t t t t t ",
"0 ; o : q q e t t t #.6 . q : + ; t w e t t t t t t t t t w 4 9 ; e t r w e w t r . e q $ , 3 e t t t t t t t w 3 $ . q q e t t ",
"> = = > 1 1 ; ; ; ; : 8 > 1 > = 1 6 < 7 3 ; ; & ; ; ; ; ; $ + + + & ; ; 1 & $ 5 5 > 7 < = > $ & ; ; ; ; & & < 7 = * > 1 > ; 6 6 ",
"9.9.9.9.9.9.D . ; @ 9 6.9.9.9.9.9.9.9.5.6 % # = 6 . . . . . . . . . . a 5.< 2 5.s.k.9.s.x.h.a . . . . 6 > * ' 9.s.L { s.' J 9.9.",
"t t t t t t t t w ; q.u t t t t t t t q 5 ) ) b 2.t t t t t t t t t t t t q R p t i t t p i t t t t t | S ) i t t t t t t t t t ",
"t t t t t t t t q % ..u t t t t t t t t p i r m :.t t t t t t t t t t t t q l u t t t t t t t t t t t t 8 K t t t t t t t t t t ",
"t t t t t t t t w & d t t t t r w r t t t t w : r t t t t t t t t t t t t . 3 t t t t t t t t t t t t i m w t t t t t t t t e r ",
"r r r r e e e . 3 $ ; w e w . ; : w r e w . - X % . r r r r r r e w . w   $ $ 3 w r r e e e w q . 3 3 4 > : 4 3 e e e e e w 0 3 ",
"& & & % < m ; + 1 8 9 m m m 9 8 # @ 1 m m 9 8 8 = $ & % % % $ % 9 g 9 g 9 2 $ $ % $ $ 1 m m g 9 9 8 $ $ $ $ + o 7 b 9 < m 9 ; $ ",
"w w q 6 O.2.d 2 5.u.j.u.2.2.2.*.3 9 F d.x.i.2.2.r w w q q q : m 2.2.2.2.2.] w w w . ; O.2.2.2.2.2.*.w w w q 3 2 5.2.*.#.2.2.c 3 ",
"t t t *.i t e m 2.t t t t t t t . 0.i t i t t t t t t t t t 0 9 t t t t t t t t t t 6 6.t t t t t t t t t t r 7 K t t t t r P #.",
"t t t t t t e m 2.t t r t t t t 4 ..i t t t t t t t t t t t 0 3 t t t t t t t t t t : d t t t t t t t t t t r ; e t t t t ] :.i ",
"t t t t t t e 5 p t r . e t t t 4 ) i t t t t t t t t t t t . . t t t t t t t t t r ; . t t t t t t t w t t w : t t t t t u t t ",
"q q q q q q : @ 3 q q . & 3 q 0 $ ; 3 . q q q q q q q q q : $ $ 0 q q q q q q q . % o ; 0 q : . q 0 : % ; % $ @ 3 3 ; 0 q q q q ",
"R R T Y T R C ; & @ # % & & ; ; & & & : Z % * C T Y Y Y Y Y S B $ + % C T Y Y Y Y S Y 5 $ $ + O 1 Y Y Y Y S S S C ; & ; % + $ ; ",
"a.l.| p | a.p r r 3 Y r r r r r r r r r p 4 C :.p p p p p p p p w & 5 ] p p p p p p p t e e . & @.p p p p p p p p r r r w & 3 r ",
"t t t t t t t t r ; q.u t t t t t t t t t q R p t t t t t t t t t ; 4 t t t t t t t t t t t t 5 O.t t t t t t t t t t r r : w t ",
"t t t t t t t t t : 0.u t t t t t t t t t 0 g i t t t t t t t t t ; 0 t t t t t t t t t t t t : 6 t t t t t t t t t t ] ' < . t ",
"t t t t t t t w r 3 a t t t t t t t r 0 e : & e t t t t t t r t q & w t t t t t t t t t r r q & 0 t t t t t t t t t t r { 3 3 t ",
"3 3 3 3 4 4 4 3 ; $ $ 4 3 3 3 3 3 4 < $ ; $ # : 4 3 3 3 3 3 ; ; $ o % 3 4 4 4 4 4 3 3 3 ; & $ # $ < 4 4 4 4 4 4 3 3 3 ; & # $ 3 ",
"; ; $ 1 0.q.q.q.q.@.@.0.3 : ; @ 9 @.q.@.e.@.@.q.6 : : : : : : & * Y @.q.q.q.q.@.) 3 ; $ X 9 e.r.e.e.q.q.q.q.q.q.< $ 1 @.r...m 0.",
"t t 4 0.i u u u u u u u t t t < l u u p | u u u t t t t t t t w m 2.u u u u u u u t t w : K p a.:.p u u u u u u w b *.} i.i *.u ",
"t t 4 ' u t t t t t t t t t t 5 ' t t t t t t t t t t t t t t w 9 p t t t t t t t t t r 9 u.t t t t t t t t t t w C :.t t t t t ",
"t t 3 q t t t t t t t t t t t : g t t e e t t t t t t t t t t : ; t t t t t t t t t t r 6 ,.t t t t t t t t t t w 5 i t t t t t ",
"q 3 $ 3 t t t t t t r 3 q e . @ ; e 4 , w t t t t t t t w 0 3 % $ 0 t r w r e r q . . : $ 4 w t t t t t t t e q ; $ . e t t r w ",
"> = = > 5 5 5 : ; ; ; : > < > = > ; $ $ & ; ; ; 3 6 5 5 1 > = = = ; 5 7 1 & % 3 > = = = = > ; 5 6 5 : ; ; : < > = = > 3 7 < 7 ; ",
"k.x.s.9.9.k.5.a 3 % 8 6.9.9.9.9.9.d   .     : = ' 9.9.9.9.9.9.9.9.9.9.9.5.: 2 5.9.9.9.9.9.9.9.9.9.#.4 , $ m 9.9.s.x.h.9.O.) 9.9.",
"i | t t t p t t t 4 0.u t t t t t t t t t t 0 m 2.t t t t t t t t t t t t q C i t t t t t t t t t t t t 3 w.u t t | i t u i t t ",
"t t t t t t t t r : ..u t t t t t t t t t e : 1 H t t t t t t t t t t t t 0 9 t t t t t t t t t t t t t 4 w.t t t t t t t t t t ",
"t t t t t t t r r ; d t t t t t t t t t t t r ; w r t t t t t t t t r t t q C i t t t t t t t t t t t t 4 w.u t t t t t t w q w ",
"e e e r r e e 0   % ; e t 6.6.d w r r e e e 3 + % ; . w r r r r e . : w e ; $ 3 w r r r e e e e e . 3   % 5 3 3 . e e e e 0 & $ ",
"g g g 5 < g ; $ 1 8 8 9 m C C 8 $ $ ; g g g 8 8 = $ $ % & % $ % 9 9 8 9 9 8 8 8 8 % $ 1 g g g g g 9 8 8 8 1 O O 1 g g g g 9 1 > ",
"2.2.2.R O.2.d 1 @.g.g.2.2.2.2.*.< 9 K k.u.2.2.2.r q w w q 0 : m 2.z.k.2.2.2.i.j.=.4 ;  .2.k.z.2.2.2.j.g.u.K & 1 @.j.x.u.2.2.#.#.",
"t t t =.i t e m 2.t t t t t t t . 0.i t t t t t t t t t t t 0 9 t i u t t t t t t t 6 6.t u i t t t t t t t   9 2.t i t t t t t ",
"t t t t t t e 3 i t t t t t t t 4 ..i t t t t t t t t t t t 0 $ e t t t t t t t t t ; a t t t t t t t t t t w m 2.t t t t t t t ",
"t t t t t t e : t t t t t t t t 4 ..t r t t t t t t t t t t . 2 t t t t t t t t t r & 3 t t t t t t t t t r . < y t t t t t t t ",
"q q w w w w : @ 3 w w w q q w 0 $ = & ; . w w q q q q q 3 ; $ = q w w w w w w . : % + & 0 w w w w w . : 3 % + + : : ; 0 3 : q w ",
"Y Y 8 * 8 9 8 S b * @ 2 Y Y S S Z C C 1 % o * B Y Y Y Y S B ; % $ @ $ % & & & & % < C S m & @ + $ & & % 5 C C C S S C Y 9 + > S ",
"p p *.w.*.*.*.p *.b S y p p p p p } *.J : 1 C :.p | g.| p p r e w < ' e e e e e e t p p i e : $ a r e e t p p p p p p p i : w p ",
"t t t t t t t t t 4 m *.t t t t t t ,.@.K l R i t t t t t t t t t < c t t t t t t t t t t t t 5 #.t t t t t t t t t t t t 3 w t ",
"t t t t t t t t t 4 R i t t t t t t u p u 0 6 t t t t t t t t t t 3 K t t t t t t t t t t t t : 3 t t t t t t t t t t t t 3 4 r ",
"t t t t t t t t e ; 6 r t t t t t t t q q 3 3 t t t t t t t r t w ; w t t t t t t t t t t r . % : r t t t t t t t t t t r ; ; e ",
"4 4 4 4 4 4 4 3 ; # o & 3 4 4 4 3 4 : $ $ # $ 3 4 4 4 4 4 4 ; ; $ o ; 4 4 4 4 4 4 4 4 4 4 : $ o # & < 4 4 4 4 4 4 3 4 3 & # $ 3 ",
"m 9 $ 1 ..0.0.0.0.0.5 ; : : % o ; : g @.e.0.0.0.0.0.0.0.@.e.C $ * Z e.r.q.0.0.0.q.e.Y % # m q.0.0.0.0.0.q.U j 3 $ # 2 ..0.0.0.0.",
"t t 4 0.p i i i i i i t t r J 2 j t t p :.u u u u u u u p | t w m 2.:.a.i u u u p 2.u e 6 6.u u u u u u u t t t . m g.i u u u u ",
"t t 4 @.u p | p p u p p p *.*.6 ' t t t t t t t t t t t t r w w b :.t t t t t t t t t r 9 2.t t t t t t t t t t w C :.t t t t t ",
"t t 3 F t t t t t t t t t t t : a t t t t t t t t t t t t p c ; m 2.t t t t t t t t t r 5 i t t t t t t t t t t w C :.t t t t t ",
"q : $ 3 t r t t t t d 3 q e 0 $ ; t r r t t t t t t t t w q < $ 2 L w 0 , 0 e t r 0 0 . ; w r t t t t t t t e w : 7 y t t t t t ",
"@ O O @ ; & : : : : 7 $ @ & $ O $ : ; ; : : : : : : : : % o O O O & % $ @ $ & : ; + O O O % ; : : : : : : : & $ O O ; : : : : : "
};
