/* XPM */
static const char *Zmxvb3Jfc3RyZWV0[] = {
/* columns rows colors chars-per-pixel */
"64 64 102 2 ",
"   c #010000",
".  c gray1",
"X  c #040203",
"o  c #050304",
"O  c #040404",
"+  c gray2",
"@  c #060405",
"#  c #070506",
"$  c #060606",
"%  c #070707",
"&  c #080607",
"*  c #090708",
"=  c gray3",
"-  c #090909",
";  c #0A0809",
":  c #0B090A",
">  c gray4",
",  c #0B0B0B",
"<  c #0C0A0B",
"1  c #0D0B0C",
"2  c #0C0C0C",
"3  c gray5",
"4  c #0E0C0D",
"5  c #0F0D0E",
"6  c #0E0E0E",
"7  c gray6",
"8  c #100E0F",
"9  c #110F10",
"0  c #101010",
"q  c #111111",
"w  c #121011",
"e  c #131112",
"r  c gray7",
"t  c #131313",
"y  c #141213",
"u  c #151314",
"i  c gray8",
"p  c #151515",
"a  c #161415",
"s  c #171516",
"d  c #161616",
"f  c gray9",
"g  c #181617",
"h  c #191718",
"j  c #181818",
"k  c #191919",
"l  c #1A1819",
"z  c #1B191A",
"x  c gray10",
"c  c #1B1B1B",
"v  c #1C1A1B",
"b  c #1D1B1C",
"n  c gray11",
"m  c #1D1D1D",
"M  c #1E1C1D",
"N  c #1F1D1E",
"B  c #1E1E1E",
"V  c gray12",
"C  c #201E1F",
"Z  c #211F20",
"A  c #202020",
"S  c gray13",
"D  c #222021",
"F  c #232122",
"G  c #222222",
"H  c #232323",
"J  c #242223",
"K  c #252324",
"L  c gray14",
"P  c #252525",
"I  c #262425",
"U  c #272526",
"Y  c gray15",
"T  c #272727",
"R  c #282627",
"E  c #292728",
"W  c #282828",
"Q  c gray16",
"!  c #2A2829",
"~  c #2B292A",
"^  c #2A2A2A",
"/  c gray17",
"(  c #2C2A2B",
")  c #2D2B2C",
"_  c #2C2C2C",
"`  c #2D2D2D",
"'  c #2E2C2D",
"]  c #2F2D2E",
"[  c gray18",
"{  c #2F2F2F",
"}  c #302E2F",
"|  c #312F30",
" . c gray19",
".. c #313131",
"X. c #323031",
"o. c #333132",
"O. c #323232",
"+. c gray20",
"@. c #343233",
"#. c #353334",
"$. c #353535",
"%. c #373536",
/* pixels */
"m H Y Y Y Y H x x Q m H m d H m Z Y Y K J Y J m x R Z H m g J v x H Y Y Y Y H m x Y H H m d H x v H K J J K H v h Y m Z m h Y m ",
"m H H m m H m x 7 x d x d 0 x 7 m H H C C H Z v 7 v u x g 0 x 7 x m H m m H H x 7 x 0 x d 0 x 7 H Y E Y Y E Y H 1 x y h g 0 x 8 ",
"m H H m m H H m x Y m Y Y H Y x C H H m m Z Z m h K m Y E H Y g m H H m m H H m x Y m Y Q H Y d x m b h h b m x x Y m Y R H Y g ",
"H H H m m H H m Y _ Y _ O._ O.H H K J C m H H C K _ Y _ @._ @.H H Y Y H m H H m Y _ Y _ O._ O.H C H J C C J H C R | R _ O._ O.H ",
"x m H m m m m d H Q m H Y Y _ m v C C v x m m x C E b J R Y ) m x m H m m m x d m Q m H Y Y _ m h m H C C H m h H Q m H Y J ( m ",
"0 x m x x x d 0 Y _ H Y Y Y _ H d x v h g h g 0 J ) H Y E Y _ H 0 x m x x x d 0 H _ H Y Q Y _ H 8 d x h h x d 8 Y _ H Y R K _ H ",
"m H H H m H m x H _ Y Q Q Y _ H x C H H Z H m d H } E ) Q K _ H x m H m H H H x H _ Q _ Q Y _ H Z Y R Y Y R Y Z H } R ( Q K _ K ",
"Q _ _ Q Q _ _ Q 7 m x m x 0 x 7 J Q } _ _ _ E H 1 m x m x 0 x 7 Q _ _ Q Q _ _ _ 7 m x m x 0 x 7 K R R J J R R K < b h m x 0 v 0 ",
"Y Y H m Y Q Y m x H H H H H H x b | ) _ _ ) | b x m Z m m Z m x H Y Y Y Y Q Q H m H H m m H H m Y R K m m H K H u v Z m m Z Z m ",
"Y Y H H Y Q Y m m H Y H H Y H m 9 J m C C m J 9 Z Y R K K R Y Z H Y Y Y Y Q Q H H Y Y H H Y Y H H K J m m H J Z C Y Y J H Y R Y ",
"Y Q Q Q Q _ Q H x m m x x m m x v ( J Y Y J ( v h m C b b C m h Y Q Q Q Q _ Q Y d x m x x m x d H Y R K K R R J x C m x g v C m ",
"d x x x m m x 0 H Y Y H H Y Y H Y @.Q _ _ Q @.Y C K Y J J Y K C d x x x x m x d m Y Y H H Y Y m 0 g x x x b x d Z Y Y H Z H K H ",
"d x m m m H m d x m m x x m m x C Q C K K C Q C v C H C C H C v x m m x m m m d x m H m m H m x d x m m m Z m h h C K H C Z m x ",
"H Y Q Y Q Q Y H 0 d d d d d d 0 J ( H Q Q H ( J 0 d h d d h d 0 Y Y Y Y Y Q Y H 7 d d d d d d 7 C K R Y Y E Y H < u v x h h u 8 ",
"x m m x x m m x m H Y Y Y Y H m K ( J _ _ J ( K H Y R Y Y R Y H x m m x m m x d m Y Y Y Y Y Y m g b m x x b x d v J E R Y R Y H ",
"m Y Y H m H H H d m H H H H m d 0 h 0 b b 0 h 0 J R Q R R Q R J H H H H H Y H x Y Q _ Q Q _ Q Y J Y Y H H K J C C Y Q Y Y Q Q E ",
"m Z H m m C m x & = d . 0 1 h = = 7 7 + 7 d d = Y Q m H Q Y _ m x H H x x H H x H _ H Y Y H _ H g C H v v H C g K K H Z K ( Q Y ",
"u x x h g h g 0 7 9 x & d 0 b 8 7 d d 7 0 x x 0 Y Q m Y Q Y _ m 0 x x d d x x 0 H _ H Y Y H _ H 8 h v d d v h 8 J Y K H Y ( Q Y ",
"v H K H H H C x = 7 u + 9 8 d 1 = 0 7 7 7 x d 7 Y _ Y Q _ Q _ H x H Y m m Y H x H _ Y Q Q Y _ H d Z K Z Z K Z d K E Q E Q _ ) Y ",
"Y ) | } } } Q K * 1 7 & < 7 9 = + 7 = 7 + d 7 7 0 m d x m x m 7 H _ O._ _ O._ H 0 m d m m d m 0 H ( | _ _ | ( H 0 g x x x m x d ",
"H R ( Q Q Q Y m 0 u 0 y 0 d u y 7 d 7 x = x 0 d d H x m H x H 0 m Q _ Q Q _ Q m d H x H H x H 0 b Y ( E E ( Y b d v m b b m b g ",
"x Z J Z H H m h d x u b y b d h 7 x 7 H = m 0 x m Q H Q Q Y Q m d H Y H H Y H d H _ Y Q Q Y _ H d C J C C J C d H R Q R Y R R K ",
"Z Y Y K J Y J m d x 9 m 9 v 0 h 7 x = H + m 7 m d H x m m d H d m Y Q H H Q Y m d H x m m d H d v K R H H R K v g m C x h x b x ",
"E ) ) Q E ( Q Y g v 9 Z 9 b 0 x 0 m = Y = H 7 m m Q m H H m Y m H _ _ Q Q _ _ H m Y m H H m Y x J ( _ R R _ ( J m K Y C b C H H ",
"Y Y J H Y Q Y b h g h x g y u h 0 x + Y = H 0 m x Y H H m x Y m Y Y Y H Y Q Y H x Q H H m x Y H Z Q m K R J Q v x R C H m x Y C ",
"Y Y K J R ( Y b y u d g d y d h 0 x + H = H 0 m 7 m d x x 0 x 0 Y Y Y Y Y Q Y H 7 m d x x 0 m 0 Y | Y ) } Q O.H 8 m d v x y b 0 ",
"R Q Q Q ) _ E C y d g g d d h x 0 m 7 H = H 0 x x Y H Q Q H Y x Y Q Q Q Q _ Q H x Y H Y Q H Q x m Q H E Q K Q v m Q H Q Q K Q x ",
"d x x x b m g 8 0 d d y 0 y d u 0 x 7 x = m 0 d Y O.Y _ O._ O.H 0 x x x x m x 0 Q O.Q _ O._ O.H 0 C h C C x C 0 E @.E | #.} #.K ",
"h b m m m C v u 7 y y 7 = 7 7 = 7 d 7 7 + 0 7 7 m Y x H Y H Q x d x m m m m x d H Q m H Y Y _ m d H b H H v H d H Q m H Y K ( m ",
"K E Q R Y Q R H 9 h h 8 < 8 8 = 7 d 0 7 = d 0 7 H Q m H Y H Q m H Y Q Q Y Y Y H Y _ H Y Y Y _ H x R Z K H m R m K _ H K Y J _ H ",
"v C m x x b b x 8 x x 8 1 0 y 1 0 x d 7 7 0 d 7 H _ Y Q Q Y _ H d m m x x x x x H _ Y Q Q Y _ Y x R m Z m x Y m H } R ( Q K _ K ",
"H Y K C m H J H + 9 0 & + 7 7 + = 0 0 + + = 7 . 7 m x m m 0 m 0 m H Y H m H H H = m x m x 0 x 0 v R m m v h Y C 7 m x m v y b 0 ",
"x Y m H m x Y m x Y m Y Y m Y x h Q Q } ( H Q m x C H C C H C x h Y m Z b d H x h Y R m C ( E h C C H Y Z g d v v Z H m b m Z m ",
"0 m d x x d m 0 m Q m Y Y m Q m y H m K H v H d J Y Y J J Y Y J 9 m h m v d m 0 h K Y b C Q R h 9 y d d d y 0 0 H R E K H Y Y K ",
"x Y m Y Y H Y d x H d x x d H x m Q H R E J Q b b m b h h b m b x Y Z E Q J E x X 7 7 & = d y & + 1 7 = 7 d y = h m Z b x b m v ",
"Y _ Y _ O.Q O.H m Q m H H m Q m E | K Q _ ( O.J Z J J C C J J Z J _ Y _ O._ O.H = 0 0 1 9 x h 7 & 9 9 * 7 v h = m K R J H J J Z ",
"Y Q m Y Q Y _ m d H x H H x H d J ( m K R Y ) m g m Z C C Z m g Z Q m K E Y _ m 7 y y 9 u b v u = y 0 = 7 v h = x Z J Z m Z C b ",
"Y _ H Y Y Y _ H 7 x d x x d x 7 H ) H R E Y _ Z 7 u x x h x u 7 H ( Z K Y J _ H + * & + * 7 7 = = 9 8 = < y 0 = 9 g v x g h g y ",
"m Q H Y Y H Q H H _ Y Q Q Y _ H C ) Y Q E J ) H C Y E R R E Y C m ( K E Y Z Q C 0 0 9 8 0 d d 0 7 8 9 8 7 8 0 y Z E ) Q E Q R J ",
"7 m x m x 0 x 0 H _ H Y Y H _ H 8 C x C v u m d Y Q Q R R Q Q Y 7 m v Z v 0 x 8 g d u y d h h d u y d x g 0 g C J ( } _ ( ) Q Y ",
"x m H H H H m x H Y Y H H Y Y H x C H C C H C x H Q C K R K ( m h m C m m H Z v d h 8 m 9 v 0 h 9 b 8 x y x 7 m H E C Q Q H Q Y ",
"Y Y Y H H Y Y H H H m d d m H H J Y Y J J Y Y J K _ H E Q R _ Z C K Y K K Y Y H 0 d 7 v 7 x 9 d 9 b 9 x y v 8 m C Y m R R C E H ",
"m H m d d x m m Y Y Y H H Y Q Y b m b h h b m b m Q C K Y H Q b h b m v v m v d 0 d 7 v 7 x 0 g 8 b 9 v y m 0 m K _ K _ _ Y } Y ",
"Y Y H m m H H H 0 x m m H H x d Z J J C C J J Z d H x m C x H d C K Y H H J Z b 0 x 0 v 8 m d x 7 m 0 h 0 m 0 m 7 h 0 g h 0 x 9 ",
"m m H m m m m x 0 x m H H H x d g m Z C C Z m g x Y C K K m Y x v Z H m m C m h 9 v 0 x 7 m d d < m y g 9 m 0 v C _ Y ( ( R } H ",
"0 d x d d d d 7 Y Y Y H Y Y Q Y 7 u x x x x u 7 H O.( | } E | K 0 g h d d g d 0 7 h 8 u & x 0 8 = m 0 u 7 b 9 d x ( K R E Y _ m ",
"H Y Q Y Y Q Y m m m m x d m m m C Y E R R E Y C C _ Q } _ Y _ J H Y E Y Y Q E J 1 x 8 0 o h 7 = = C 0 0 = x 7 0 H @._ } | } $.K ",
"Y Q Q Q Q Q Q H x H Y H H H m d Y Q Q R R Q Q Y 0 J m K H x H g K E ( Q Q _ ) R 8 b 0 y + x 8 = = C y 0 * x < 8 8 H b m m m K 0 ",
"Y Y K H K Q Q Y g Y m m m m Y g m Q H H H H Q m m H H m m H H m K ( m K Q Y _ m 1 h x 7 * 8 0 < 7 d d 7 = 0 0 = d m H H m m m x ",
"R Q E Y E _ ) R 7 m g x x g m 7 Y O.Y _ _ Y O.Y H Y Y H H Y Y H K ( C Y Q R _ m = y d 7 < 0 8 + = 0 0 = = 7 7 + m Y Q Y Y Y Y H ",
"m H H Z J Y K m d Y Z J J Z Y d m Q H Y Y H Q m x m m x x m m x Y _ K Q _ Q } C v J Y H K E J h x H Y H H Y H x d m m x x x m x ",
"g v b v m Z b d Z O._ | | _ O.Z 0 m x m m x m 0 m H Y H H Y H m y m u v m x m 8 E ( ) ) | #.} Y d H Y H H Y H x m H Y H m H H H ",
"b Z H Z H K Z h v ) R ( ( R ) v d H x H H x H d x m H m m H m x d Z h m C v H y H H Z Z K Q Y H 0 m H m m H m d x m H m x m m m ",
"Z J H Z H Y H v u Y C H H C Y u x Y m Y Y m Y x 0 d x d d x d 0 H ) J R R J ) H R Y K Y R Q Q E x H Y H H Q Y m 0 d x d d d d d ",
"C H C b m H C x x Q J Y Y J Q x x Y m H H m Y x H Y Q Y Y Q Y H h H g x x d H x Y E Q ) Q E E Q d m m x x H H x H Y Q Q Y Y Y H ",
"H H C v b H Z v H O.Q Q Q Q O.H x Y x m m x Y x H Q Q Q Q Q Q H C Q m m m v E Z 9 u x m x y 0 d m H H m m H H m H Q _ _ Q Q Q Y ",
"v C H m m C m h Y ( b H Q E _ b d Y m H m d H x Y Q m Y Y Y _ m d Y C J m g H g x J R J J R J x d Y H Y H x H x Y Y Y H H Y Y Y ",
"0 g h u d g d 9 K ( C Y Q Y _ m 7 m d x d 0 x 7 H _ H Y Q Y _ m 7 v u x g 0 x 7 J _ O.) ) O._ J 7 m d x x 0 x 7 Y Y Y Y Y Y Y Y ",
"Z K Y J H K H m H } R ) ) R } H m Q m Y Y H Q m Y _ Y Q _ Q _ H b R C K R H Q v Z Q _ E E _ Q Z x Y m Y Y H Q x Y Q Q Q Q Q Q Y ",
"Q _ | _ ) _ ) E 7 m x m v u m y Y O.Y _ O._ $.Y 0 m d m m d m 0 R | Y _ O.} #.Y g Z J m m J Z g Y _ Y _ O._ O.H 0 x x x x x x 0 ",
"Z Y Y J J K J m 9 H b H m d C d m Y m H Y Y Q m 0 H x H m x H d m Y b K E Y Q v x H J m m J H x x Y x H Y H Q x d x m m m m x d ",
"J R E Y Y R Y Z m ) R ( R H ( H H Q H Y Q Y _ m m _ Y Q Q H Q H C Q H R Q Y ) m b K Y Z Z Y K b m Q H Y Q Y Q m H Y Q Y Y Q Y H ",
"Y Q ( E E Q E J d H x b v g H d H _ Y Q Q Y _ H d H x m x d H x H _ E ) Q K _ H v J K m m K J v H _ Q _ Q Y _ H x m m x x m m x ",
"d x v h h x h y m R m Z H m E b 0 H x m x 0 x 0 x Q H H m x Y m 9 C x m x 0 v 0 v J K m m K J v 0 H x m x 0 m 0 H H H m m H H H "
};
