/* XPM */
static const char *aG91c2UtcmVtb3ZlYmctcHJldmlldw__[] = {
/* columns rows colors chars-per-pixel */
"64 64 245 2 ",
"   c #0D0C0B",
".  c #080807",
"X  c #160D0B",
"o  c #0C100C",
"O  c #12120E",
"+  c #1D140E",
"@  c #130E12",
"#  c #1B0F13",
"$  c #0E1314",
"%  c #141414",
"&  c #1A1515",
"*  c #161815",
"=  c #1B1A15",
"-  c #151419",
";  c #1A161A",
":  c #161A1B",
">  c #1C1C1C",
",  c #0C0E10",
"<  c #211D1D",
"1  c #251817",
"2  c #20120F",
"3  c #1E201C",
"4  c #22221D",
"5  c #29231E",
"6  c #23241A",
"7  c #37221D",
"8  c #1D1D22",
"9  c #1C1A24",
"0  c #221E21",
"q  c #2A1E22",
"w  c #1E2223",
"e  c #1E2329",
"r  c #252224",
"t  c #262526",
"y  c #242323",
"u  c #292525",
"i  c #262924",
"p  c #2A2A25",
"a  c #25252A",
"s  c #2A262B",
"d  c #252A2A",
"f  c #2D2D2D",
"g  c #2B2A2B",
"h  c #322D2D",
"j  c #372A26",
"k  c #39352A",
"l  c #2D2C31",
"z  c #2A2631",
"x  c #322D33",
"c  c #312732",
"v  c #323132",
"b  c #3B3635",
"n  c #2E312D",
"m  c #5A2B19",
"M  c #583717",
"N  c #552A0C",
"B  c #742A02",
"V  c #752A0D",
"C  c #682818",
"Z  c #663519",
"A  c #723014",
"S  c #482B24",
"D  c #582924",
"F  c #45352B",
"G  c #583B29",
"H  c #453A35",
"J  c #563A34",
"K  c #532F33",
"L  c #652B22",
"P  c #673828",
"I  c #6B3C34",
"U  c #673934",
"Y  c #753C36",
"T  c #793522",
"R  c #491C05",
"E  c #584618",
"W  c #684417",
"Q  c #764416",
"!  c #6E561A",
"~  c #584729",
"^  c #5C542B",
"/  c #595226",
"(  c #5A4438",
")  c #5C5531",
"_  c #494135",
"`  c #61412C",
"'  c #664437",
"]  c #764737",
"[  c #785535",
"{  c #70532D",
"}  c #746937",
"|  c #6F6834",
" . c #75611A",
".. c #3E3F46",
"X. c #453846",
"o. c #713F42",
"O. c #365B6D",
"+. c #38696B",
"@. c #3F4249",
"#. c #584744",
"$. c #464855",
"%. c #554C56",
"&. c #545358",
"*. c #4D554E",
"=. c #744944",
"-. c #6C554B",
";. c #785548",
":. c #694F4D",
">. c #777647",
",. c #6A7558",
"<. c #757855",
"1. c #6E6C4B",
"2. c #4C596C",
"3. c #4A6268",
"4. c #446874",
"5. c #5A647B",
"6. c #59736E",
"7. c #6A7071",
"8. c #46665B",
"9. c #8C3C2F",
"0. c #A13F32",
"q. c #844918",
"w. c #83571A",
"e. c #84492C",
"r. c #8B5A2B",
"t. c #915C2D",
"y. c #874738",
"u. c #984838",
"i. c #875833",
"p. c #B8492D",
"a. c #A64A36",
"s. c #B84D37",
"d. c #BB533A",
"f. c #B75639",
"g. c #A95033",
"h. c #8D6D30",
"j. c #B36236",
"k. c #BC763B",
"l. c #AE6D33",
"z. c #C25037",
"x. c #C47838",
"c. c #875645",
"v. c #8C5247",
"b. c #B75842",
"n. c #A85342",
"m. c #8F6A56",
"M. c #B46C4C",
"N. c #B67444",
"B. c #A96A55",
"V. c #B46A52",
"C. c #B06C4D",
"Z. c #987567",
"A. c #94736C",
"S. c #A4776A",
"D. c #CD7C54",
"F. c #CF7753",
"G. c #CD724E",
"H. c #C66F54",
"J. c #7A8457",
"K. c #7A834B",
"L. c #598279",
"P. c #798679",
"I. c #789279",
"U. c #B08D3C",
"Y. c #938733",
"T. c #E9973E",
"R. c #FEAE35",
"E. c #FEAC3A",
"W. c #F7AB37",
"Q. c #FBB032",
"!. c #FAB23B",
"~. c #F5C33E",
"^. c #8C8852",
"/. c #BA8848",
"(. c #AF9253",
"). c #B6A253",
"_. c #B6A249",
"`. c #B38A71",
"'. c #B4A679",
"]. c #C88847",
"[. c #C8974A",
"{. c #D29D54",
"}. c #D5924A",
"|. c #E59840",
" X c #E79740",
".X c #D3A755",
"XX c #CAAA4F",
"oX c #F7AA45",
"OX c #F7AA47",
"+X c #F3B045",
"@X c #C79A7A",
"#X c #C8916F",
"$X c #CDB66C",
"%X c #D6B96A",
"&X c #DEA67D",
"*X c #CEB275",
"=X c #E1A67E",
"-X c #F9C546",
";X c #F2D459",
":X c #FDE55D",
">X c #FDE95E",
",X c #F9E35A",
"<X c #DFC86C",
"1X c #DBD168",
"2X c #DCC575",
"3X c #DCD274",
"4X c #E3C868",
"5X c #F6CA68",
"6X c #E8D66B",
"7X c #FEDB6C",
"8X c #FBD869",
"9X c #E4CB75",
"0X c #E3D274",
"qX c #E8D877",
"wX c #FCD873",
"eX c #F6CD75",
"rX c #FEE464",
"tX c #FEEA63",
"yX c #FDE56C",
"uX c #FEEA6B",
"iX c #F6E366",
"pX c #FDE573",
"aX c #FEE97A",
"sX c #FCE678",
"dX c #356D83",
"fX c #516C85",
"gX c #6A7784",
"hX c #6B7790",
"jX c #807885",
"kX c #548D92",
"lX c #6A8987",
"zX c #728B93",
"xX c #4795A3",
"cX c #7196A4",
"vX c #59A2B1",
"bX c #938D94",
"nX c #B3AB86",
"mX c #B6B28D",
"MX c #8C9BB0",
"NX c #9EA3B6",
"BX c #D5AC85",
"VX c #E0AC87",
"CX c #EBCF81",
"ZX c #F8EB82",
"AX c #B4BED3",
/* pixels */
"> y t t t y 3 : : t > > : * y : < y u y y r y > : r 0 0 8 ; 0 > > w y i i i 6 > = y 0 0 > * w : > y t t t t y > ; y > > > ; y > ",
"> y y > > w > : % : * : * % : % > 4 y 0 < y < > @ > ; > : * : % > 8 w > 3 3 3 > O > ; > : % * , y r t r y t r 0 , : * : ; - : % ",
"y y y > > y y > : t y t t y t : > 4 y > > 4 4 > = y 0 t u y t = < y 0 > > 3 3 > : y 0 t a y t : > > > : : > > > : r 0 t u y t : ",
"y y y y > y y > y f t f v f v t 0 y y 0 < y y < r g u g h g h y < y y < < 4 y > y g a f v f f y > y y 0 < y y < t f u f h f h y ",
": > y > > > : * y t y t t t g 0 < 0 0 < < 0 < ; 0 u 0 u s u g < > < < < < < > - w a 3 y p i p < = > 0 < < 0 > : y g 0 y t t g 0 ",
"% : > > > : * % y g y t t t f y & < < ; ; ; ; & r f y t s t f y % = 1 > > > ; % y d i i d t g 4 O & > : > > & % t g y t t t f r ",
"> y y y y y > : y f t g t t g y ; 0 r 0 y 0 > ; y g a g g y g y : > y 0 0 r y > y g d i p 6 p y 0 r t t t t r < y g t g u r g r ",
"g f f g g g g t % > > > : * : % y g f f f f u 0 % > > 8 > * : % d d g g s h h g O > > > = % = % y t t y y t t y   > : > : - > - ",
"t t y y t g t > : > y y y y > > > n p n g p f > : > < > ; y 0 ; w d w a a r f 0 > 4 3 > 3 > y 8 t t y > > y r y - > < > > 0 0 > ",
"t t y y t g t y > y y y y y y > % i > 4 4 > y O > u u u r r u 0 w w d w g l s a r 4 t i i y y a y r y < > y y 0 > y r y 0 r t t ",
"t t t t g f t y > > > > > > > > > g y t s t f > - 0 > > y 0 8 8 y d a d @.$.$.$...v y % > 8 8 : y r t y y t t y > 0 < > : > 0 0 ",
"* : : : > > : % y t t y y t t y a x l l l s v a y t y 8 r t 0 : & * > ..&.$.$.$...&.v a y y a w % ; > : : > : * 0 r t y < y y y ",
"* : > > > y : * : > > : : > > > 0 s a a a y s y > > t 4 4 i y 4 1 1 b &.5.gXhXhX5.$.&.8 r y : * * > > > > 0 > ; ; > y y < < > : ",
"y t t t t g t y % * : * * : * % y s y u u u g u 5 j j j j k k F J J #.7.hXfXfX5.5.2.$.$.- * % O > y t r r t r <   * > > : : * % ",
": > > > > > > : > y t t t t y > u p 5 k H #.#.( ' ' S D U P P P U J H bXNXhXhXhXhX5.$.&.s 4 6 > = > > > > > > & : y t t t t r y ",
"8 y y > > y y < ; 8 y y y y > & O & + H -.A.S.`.`.Z.P ] B.B.B.B.B.B.U :.gXfXfXfX5.2.X.%.H g p t y t u y y r y < < u p t t g g s ",
"8 y 4 > > > > > . @ - . o o > X   & k -.Z.c.Y v.=.=.I D y.V.f.d.b.n.v.U 7.MXMXcXhX$.K =.#.h u i * > < 1 & 0 0 & 4 4 4 4 y g g r ",
"* : = = = = & % @ @ -   $ % & X % H -.Z.c.Y ] Y I ' ' I C y.b.s.p.d.a.L bXAXMXMXzXX.P v.=.:.H < % * < X > > - * 4 5 6 4 t l f a ",
"> 0 y y y y > ; X   O . . % & # b -.Z.c.I Y U G G D U I U L y.n.d.p.g.L bXAXMXMXzXX.L n.u.Y =.< % y y y > t > * i t p t p h f s ",
"t g x l l l g y . O   . o   # F -.A.;.] Y I m Z M Z m P I I m y.f.d.a.T A.bXjX7.7.K 9.f.a.a.y.' j u l l f g f 8 % * > = = < > - ",
"4 u g g g z a 8 % O % =   & F -.m.c.] P P Z N.].].]./.Q Z I I L u.n.f.a.9.D D D D Y a.d.z.s.a.9.' j c a s x r 0 - > < 1 1 < > : ",
"= 4 4 y y a 9 ; * = % & & k -.m.i.P ] P Z /.5X8X8X8X5X[.Q Z Y I L y.b.f.a.u.u.u.u.a.s.p.z.p.z.a.y.' j q 0 y r & 0 u u u 5 u y w ",
"4 5 u t r a y 8 ; % & < j -.m.c.I ] L Z U.5XyXrXrXrXpXwX[.q.Z I U D y.V.H.f.f.f.s.p.p.s.p.d.p.s.a.e.] 7 4 p 3 > * < < = & < > > ",
"u p g p s g g a ; & & F -.A.;.I I Z Z /.5XrX>X,X>XtXrX7XwX{.q.Z I I L e.M.G.G.d.s.s.p.p.s.s.s.s.f.u.y.' j p p 4 = 4 y < < 0 0 0 ",
"u u a r u p t > ; 1 j ' m.;.=.Y C A /.5XyX,X>X>X>X,XtXrXrX7X.Xq.Z ' ' m e.N.D.F.G.z.z.d.f.f.s.s.s.s.n.y.=.j u > : t < 0 > > y < ",
"y t a a p p t > ; j ( ;.] Y Y L A /.5X7XtX>X,X>X>XtXtXtX>XrX8X{.Q m I ' m e.n.f.b.b.f.f.g.g.a.0.0.0.y.9.I #.x 0 % > ; > > - > % ",
"t a s s p p t > < H -.;.I Y Z Q U.5XpXyXrXrX,X>X:XtX>X>XtX:XuX7X{.q.m I U m C A A A A A V V V C C C A C m ' j 8 9 a r s g t i = ",
"* : 8 > < < ; @ 4 H ;.' I Z Q [.8XrXrXrXrXtXtX,XrXrX,X:XtX:X>XrX8X{.r.m U D ] B.C.C.C.V.M.M.C.C.V.B.M.C.B.c.#.; s x g l v n h t ",
": > > > < < > - > H -.J L Q [.8XrXrXrXrXuXtX:X:XuXrX:X:XrXrX:XrXyX7X{.r.M R i.V.].D.D.D.D.D.D.D.F.F.F.D.D.c.' 2 y g y y t t g < ",
"r t u 6 u s a 0 - h J R Z /.eX7XpXyXpXsXpXyXyXuXiXyXyXuXpXpXpXpXyXpX7X.Xw.N e.j.j.j.f.j.j.j.j.j.f.f.M.C.B.c.( 1 y g y y r r f r ",
"0 < 6 = > 0 < > @ ; F M /.eXwX6X<X2X9X9X2X9X4XwXyXuX4X4X9X2X9X9X9X4X7X7X.Xl.q.B V V B B B B B B B V N G J #.k & 4 g d g p u h u ",
"r r 6 = < 0 y 0   @ F E XX7X4Xh.>.<.} >.>.|  .<XyX6XY.} >.1.>.>.}  .XXrX8X+Xx.x.N.k.x.x.k.k.k.k.k.N.[ ( q 9 < y O > > > > & < & ",
"; r > > 8 9 r > > y k ^ <XpX2X| L.vX4.6.zX*.E $XaXqXK.I.L.+.kXlX*.M _.pX7X-XoXoXoXoXoXoXoXoXoXoXT.}.i.' 5 - * > : < y > > 0 0 > ",
"% > : > > ; > * > p k / 1XsX2X1.kXvXdXfXcX8./ $XsX3XJ.lXkXdXxXkX&.G ).pXrX-X!.E.R.R.R.R.R.R.R.R.E.T.t.` 1 @ % O < r u y 0 r t y ",
": t 3 t a y 6 * ; t p / 0XaX*X| +.dXO.2.6.*.E %XpXsX<.3.4.O.dX4.%.G ).sXrX-XW.E.R.R.R.R.R.E.E.E.E.|.t.G + % -   ; > y > > 8 > > ",
"t g t p f p p 4 > u g ) 0XaX2X} 6.cX3.7.zX*./ $XyX6X^.P.gX4.cXlX%.G ).pXrX-X!.E.R.R.R.R.R.R.E.E.E.|.t.G + & >   > y t y 0 y y 4 ",
"t g 4 i i t p 3 & 0 p ) 9XaX%X| 6.cX8.6.bX*.E %XpXqX^.P.7.3.zXlX( M _.pXrX-X!.E.R.R.R.R.R.R.E.E.E.|.t.G + * ; . ; < y < 0 0 < > ",
"t g i t t t p y - > u ) 9XaX4XY.1.,.,.1.<.}  .%XyXiX^.>.<.,.,.<.}  .XXiXrX-X!.E.R.R.R.R.R.R.R.E.E. Xt.G X   %   % : > : ; > : % ",
"w g y t t y g y 0 f k ) <XyXiX4X3X3X3X3X1X1X6X7XtXiX6X0X0X3X3X3X0X<XiXuXrX-XW.R.Q.Q.R.R.R.R.R.E.E.T.t.G +   % % < u g g s s t y ",
", > > > : * > - a g h ^ 0XuXtXtXuXyXpXyXtXtXtXrX>X>XuXrXrXuXuXuXyXuXtX,XrX-XW.R.Q.Q.R.R.R.R.R.E.E.|.t.' 1 @ * 4 y g h f f f g t ",
"> 9 y w y y 8 > a u k ^ 4XuX:XrXyXyXyXuXiXtXtXrX>XtX:XtXyXrXrXrXrXuX,X:XrX-XW.Q.Q.Q.R.R.R.R.E.E.E.|.t.' 2 * , > y u y g s y g t ",
"y a a y y t t y < u k ^ qXrXrXyX6X4X6X4X6XaXiXrXrXtXuXpXyXpXaXpXpXaXtX,X:X-XW.R.Q.Q.R.R.R.R.E.E.E.|.t.' 2 ; % > 0 t 0 t s 0 u y ",
"0 y 8 * = = 3 > 6 5 k ^ 0XpXsX%Xh.i.r. .h.XXaXyXrX8X4X4X9X9X2XCXCX<X8X:X,X-XW.!.R.R.R.R.R.R.E.E.E.|.t.' 2 : % > y g r g s r g t ",
"y y y > > 4 4 4 O = j ^ 0XsX%Xh.Z P Z [ P { .XwXuX7XU.} } | 1.<.} ! XXrX:X-X!.E.R.R.R.R.R.R.E.E.E.|.t.' 2 > * > @ : * : > - > % ",
": > > > > > = * O = j ^ qX4Xh.W { `.#X#Xv.Z  .%XpXqXK.P.L.+.kXkX*.M _.yX:X~.W.E.E.R.R.R.R.R.E.E.E.|.t.` 2 : * = > g t g s s f y ",
"O * = * ; ; % o t u j ) 9X4X{ P `.VX=X=X#X[ N %XaXqXJ.lXkXdXxXkX&.G ).yXrX-XW.E.R.R.R.R.R.R.R.E.E.|.t.` X ; % % > g u g s s f 4 ",
"< t t a a a y > > < p ) 9X9X[ P `.@X&X=X@X[ W $XpXqXJ.3.3.O.+.4.%.G ).iXrX-XW.E.R.R.R.R.R.R.R.R.E.|.t.` X * @ O 0 h f f x l v t ",
"u p g g g l d y > t p ~ qX9X{ P m.c.#X&X@X{ E $XpX6XK.P.gX2.zXlX%.G ).pXrX-X!.E.R.R.R.R.R.R.R.R.E. Xt.` X %     % y 0 8 0 y t * ",
"a s t 4 i g g r & u 1 ~ 3X<X[ I `.#X&X&X@Xi.W $XpX6X^.P.gX3.lXlX#.M ).sXrX-X!.W.E.R.R.R.R.Q.R.R.E.T.t.G X ,     & < y w 8 w > : ",
"a s g t i p g a @ 1 1 ~ $X%X[ I @XVXVXBX@Xi.Z *XZX3X^.,.,.6.7.,.-.{ $XZXpX;X+X+XOXOXOX+X+X+XOXOXT.}.r.G X $ , . > y a a w w y > ",
"0 y y 4 6 t y 8 > u q ( ^.(.' J `.@X@X`.`.] ` '.9X2XBXnXnXmXnXnXnX'.*X2X9X.X.X{.{.{.{.}.}.{.].].].N.[ :.r w 3 = & < y > : > > : ",
"; > > : > 3 8 - > k h H ~ ~ S S G ( ~ ( ( S S ~ / ! ) ) ) ^ / ^ ^ ^ / / ! E W W W W W W Q Q W Z Z Z K #.s w 3 = 1 4 i 3 > 3 y < ",
"> 0 0 8 4 y 9 ; > g r v H H _ F k k k H H b H h k _ b k k k H k k k k k H k H j F F F F F J J J S F H b 8 y t = = < w > : > < < ",
"< y y 0 y t a > * > r r r y u < > g t d t 3 d w * > y > > 3 : % i p i t y y l a l g p p p g c c < 0 s a 8 y t * % : > - * * & & ",
"< 4 8 > > y 0 > > t a y a a t & 9 a > 8 y > 4 = > 3 p t 6 t i w : y : : * : w : w i i i i t t a w 8 8 > > y y > 0 a g a t t u y ",
"4 y 0 > > y 0 > > v g g z z v r 9 s 0 0 < > 6 = i g g p p i f y < s 0 > > > t 3 % % = 3 > * * * : w w > > t y 8 y l l g g g p t ",
": > < > > > > & u g > y s s g 8 ; a 0 4 > = 3 * y g y a a a g 0 ; r 0 y < & < * = y s r r a y : * i 3 4 > : w : a a a r y u g t ",
"% & = % % & & O y s 4 t p u f 0 % > * = * % : % y g y a z s g < % > & > & & = X y f x l l l f y % = * = * % : $ w a a r r t d y ",
"0 r t 4 y 4 4 < y f u p p 5 f y > t 4 y t y t > y g t g c s p 4 > t > t t y u > 0 g f s a g g y > t 4 t t y a > i d p u t g d y ",
"g f h g g g p u @ < > < = + > & t g t g f f v t % > = > 9 ; > O t g t g v x x r & 0 y > > y w * u f u p f f v y * = = = : > > % ",
"0 u u y y t y > % < > 4 = + < ; > t 8 a t t g > % 3 > 8 9 9 w % > r < r s a s 0 ; 0 y < < 4 4 & > r > y d t a : * = = = > 8 > * ",
"r s s u t t r 0 > g t p t 4 u y 4 g a a p t g y > d t d a e d w 0 s y u g s s 0 < u u < < u u < 0 s y t d t g > 4 6 t y a a t 4 ",
"u s f s u g a y : y > 8 > : 4 = 4 g a g t t g y * 4 = > > : 3 : y f u p p t g y > y y < > y r > y g d p d t f y = < > > 9 9 > = ",
"; > 8 ; : > > - > i > 8 8 > t = O 3 8 8 = % 8 - > t 4 4 3 > i > - 0 > = * O = % : w y > > y r > % w 3 3 : * > & < 4 y 9 9 a y < "
};
