/* XPM */
static const char *cXVlc3Rpb25fbWFyay1yZW1vdmViZy1wcmV2aWV3[] = {
/* columns rows colors chars-per-pixel */
"64 64 187 2 ",
"   c #020302",
".  c #090404",
"X  c #010C01",
"o  c #090905",
"O  c #060509",
"+  c #010C0A",
"@  c #0D0C0D",
"#  c #090708",
"$  c #100E0F",
"%  c #001301",
"&  c #001C01",
"*  c #12120E",
"=  c #110F10",
"-  c #0E1414",
";  c #141414",
":  c #181617",
">  c #191718",
",  c #1C1B1C",
"<  c #151319",
"1  c #201E1F",
"2  c #002302",
"3  c #002A0C",
"4  c #002606",
"5  c #00310D",
"6  c #003607",
"7  c #002D10",
"8  c #003412",
"9  c #003C12",
"0  c #003819",
"q  c #20221F",
"w  c #211F20",
"e  c #242323",
"r  c #282627",
"t  c #292728",
"y  c #2B2A2B",
"u  c #302E2F",
"i  c #312F30",
"p  c #333333",
"a  c #393A35",
"s  c #3B3B3B",
"d  c #36363A",
"f  c #2F3835",
"g  c #433D3D",
"h  c #00421A",
"j  c #004C1B",
"k  c #005F18",
"l  c #00761F",
"z  c #00681C",
"x  c #024E26",
"c  c #035425",
"v  c #065929",
"b  c #384139",
"n  c #00662D",
"m  c #00662A",
"M  c #0F6D3D",
"N  c #43423F",
"B  c #3D3E41",
"V  c #413E42",
"C  c #3C4242",
"Z  c #3A4644",
"A  c #127A46",
"S  c #077D41",
"D  c #444444",
"F  c #494344",
"G  c #454944",
"H  c #494946",
"J  c #4C4C4C",
"K  c #444549",
"L  c #514C4D",
"P  c #4C514D",
"I  c #52534E",
"U  c #4D4E51",
"Y  c #535453",
"T  c #5B5355",
"R  c #5A5857",
"E  c #5C5759",
"W  c #5C5C5C",
"Q  c #555C5A",
"!  c #4F5450",
"~  c #605D5E",
"^  c #5D605D",
"/  c #62635F",
"(  c #5D5E60",
")  c #615F60",
"_  c #5F6260",
"`  c #636463",
"'  c #696565",
"]  c #636966",
"[  c #6A6866",
"{  c #656569",
"}  c #6A676A",
"|  c #656A6A",
" . c #6A6A6A",
".. c #716D6C",
"X. c #6E706F",
"o. c #73746E",
"O. c #696E71",
"+. c #756E72",
"@. c #6D7272",
"#. c #6F7875",
"$. c #747373",
"%. c #7B777A",
"&. c #767D7D",
"*. c #7C7B7D",
"=. c #787A76",
"-. c #817D7D",
";. c #009439",
":. c #009D3E",
">. c #0C803F",
",. c #16884A",
"<. c #18964E",
"1. c #179954",
"2. c #0D924A",
"3. c #259C5B",
"4. c #06AC49",
"5. c #00B349",
"6. c #16A757",
"7. c #06B654",
"8. c #14B853",
"9. c #11AC4E",
"0. c #20A65F",
"q. c #239E63",
"w. c #18AF64",
"e. c #09B862",
"r. c #15B866",
"t. c #24AD66",
"y. c #29B669",
"u. c #7A8076",
"i. c #0BC766",
"p. c #15C567",
"a. c #0BD768",
"s. c #13DB68",
"d. c #2BC76C",
"f. c #18E56A",
"g. c #1BE873",
"h. c #0CE269",
"j. c #22EF73",
"k. c #83817E",
"l. c #7D7D81",
"z. c #827C81",
"x. c #7B8383",
"c. c #778183",
"v. c #30D082",
"b. c #848483",
"n. c #858987",
"m. c #898A86",
"M. c #878B89",
"N. c #8C8D8B",
"B. c #898588",
"V. c #918C8D",
"C. c #8D918E",
"Z. c #93928F",
"A. c #8D8E91",
"S. c #878F91",
"D. c #938D91",
"F. c #8B9292",
"G. c #929292",
"H. c #9A9795",
"J. c #969994",
"K. c #989B96",
"L. c #9A969B",
"P. c #959A9A",
"I. c #9B9A9B",
"U. c #96979C",
"Y. c #A09599",
"T. c #9DA4A4",
"R. c #A5A2A2",
"E. c #ABA8AA",
"W. c #B1ACAD",
"Q. c #AFB4B5",
"!. c #B3B4B5",
"~. c #B1B3AE",
"^. c #CCCCCB",
"/. c #C8CAC6",
"(. c #D3CACE",
"). c #CCD1CD",
"_. c #CBCFD2",
"`. c #E0DEDF",
"'. c #DDE3DF",
"]. c #E2E1DE",
"[. c #E7DFE5",
"{. c #DFE3E6",
"}. c #E4E4E4",
"|. c #EBE4E7",
" X c #E5E9E4",
".X c #EAE9EA",
"XX c #E9E8E8",
/* pixels */
", e e e e e 1 > > e , 1 > : e , e e e e e e e , > e 1 w , > w > > e e e e e e , > e e e , > e > , e e e e e e , > e 1 1 , > e , ",
", e e , , w , > ; > : > > ; > ; , e e w 1 e 1 , = , : > > ; > = > , e , , e e , ; > : > > : > ; e e e e e e e w $ > : > > ; > ; ",
"e e e , , e e , > e e e e e e > , e e 1 1 e w , > e w e r e e > , e e , , e e , > e w e e e e > , , , > , , , , > e w e r e e > ",
"e e e e 1 e e , e y e y p y p e w e e w 1 e e , e y r y p y i e e e e e , e e , e y e y p y y e , e e 1 1 e e 1 e y r y u y u e ",
"> , e , , 1 , : e r e e e e y e , 1 1 , , , , > w r w e t r y 1 > 1 e , , , , : e e , e y e y , > , w 1 1 w , > e y w e r e y w ",
"; > , , , > : ; e y e e e e y e : > , > > > > ; e y e e t e y e ; > , > > > > ; e y e e y e y e ; : , > , , : ; e y e e e e y e ",
", e e e e e , > e y e y r e y e > , e e e e , : e y r y t e y e > 1 e , , e e > e y e y y e y e w e e e e e e 1 e y e y r e y e ",
"y y y y y y y e ; , , , > : > ; e y y u y y r w = , , , > ; > ; e y y y y y y y ; , , , > : > ; e r e e e e e e @ , , , > ; , ; ",
"e e e e e y e , > 1 e e e e , , , u t y u y u 1 : 1 , , w e , > , e e e r y y e , e e , , e w , e e e , 1 e e e : , 1 , , w w , ",
"e e e e e y r e , e e e e e e , ; e , e e , e ; e e e e e e e e e e e e y y y e e e e e e e e e e e e 1 , e e w , e e e e e e e ",
"e e e e y y e e , , 1 , , , , , > y e e e e y 1 : , e , > e e > w t y e e y y e > > , > , , , > w e e e e e e e , w 1 , > , w w ",
": > > > , , > ; e e e e e e e e e p y y y e y e e e e e e e e > > , > > , , > ; , e e e e e e > ; > > > , , , : w e e e 1 e e e ",
": , , , , e > : > , , > > , , > e y e e y y y e , e , , e , > , > > > , 1 , > , : , e , , e e > : , , , , w , > > , e e 1 1 , > ",
"e e r e e y e e ; : > : : > : ; e e e y s H Y H H D y : : > : ; e y y e e y e e e y e > : > : @ 1 e e e e e e 1 @ : , , , > : ; ",
"> , , , , , , > , e e e e e e , e y y p d d s p p d D d y e e e , e , > y p y y p p p p p p y e > , , , , , , : > e e e e e e e ",
", e e , , e e 1 : , e e e e , : ; y G R ^ W W W W N H ` ` ` { ` ` ` ` ` R H D W ^ W W ( R J s y e e e e e e e , 1 e t e e y y t ",
", w w , , 1 , > # @ ;   ; ; : @ q H  .$.@.| ] ` [ J W m.G.F.S.F.A.A.N.N.C./ J  .} | | @.$. .Y s y e e > > e , > e e e w e y y e ",
": > > > > > : ; @ = > # : ; : > D $.I.E.T.x.] W R N H / ` { | | | ] ] / / J F E ( ] c.T.E.G.$.R d e e : : , : ; e e e e e y y e ",
", w e e e e , > # @ ; . ; @ > y ` L.(.[.}.Q.O.U J T +.k.*.*.*.=.=.=.u.u.u.X.E J U O.Q.{.|.(.H.[ L p y e , e , : e r t r y y y e ",
"e y u y y y y e # @ @ # @ @ e G $.E.[..X.X_.A.B.B.N.L.I.J.I.H.H.H.J.K.J.K.H.V.B.n.F.^.XX|.|.W.$.W d s y y y y w ; > , > , , , : ",
"e r y y y y e , ; : ; ; ; ; y E +.R.}..X.X/.n.N.F.b.*.*.l.l.l.z.z.z.z.*.l.*.z.G.N.m./. X.X`.R.%.W s G y e y e > : , , , , , , > ",
", w e e e e , > : > : , : , y W } b.!.^./.Z.I Y W G D D D B s C B V V D K D D W Y Y Z./.).!.b.} W s H e , e 1 : 1 e r e e e e e ",
"e e e e e e e , : : ; , ; 1 p W | ] | M.m.I a G a :     X X X X X + + +   . : a G s I b.N.@.{ { W s J e e e e , > , w , > , , , ",
"t y y t t y t e > > ; , = e p W | Q J b.N.Y G a *     % 4 5 6 6 9 8 5 3 %     * a D I N.B.J E } ( s P r y y t e , e e 1 , 1 e w ",
"e e e e r y e , > : : > > ; u W  .R F B.A.W d ;     % j 2.6.8.8.8.8.9.2.j % X   ; p ^ N.m.F R  .W p Y e e e y , > e w w , > e , ",
"e e e e t y e , : = : > = ; y D H G T V.l.K <     X j <.p.s.f.j.f.f.s.p.<.j X     ; D *.V.T G G H p J y y y y e ; , > , > : , ; ",
"e r r r y y e , : ; > , ; > y D W J X.I.l.C O   X h 2.p.a.h.s.f.f.f.a.i.r.,.h %   . s *.Y...J ^ G D y y y e y , , r e t y e r , ",
": > , , , , > = $ : ; ; ; ; , Y M._ &.I.&.G # X 0 ,.r.i.i.7.:.;.;.;.7.p.r.w.,.8 X . V l.L.-.^ n.R d > , e , , : t i y u p u p e ",
"> , , , , 1 , ; @ : ; # @ # $ W G.` *.I.*.g . X c 6.e.i.6.m 2 & 2 2 c 1.r.r.q.x X . s *.L.l.` G.` p , e w > , > e t w e e e y 1 ",
"e e r e e e e 1 = > > $ @ @ ; R V.` *.I.l.g o X v 0.r.r.n & X     X & n e.e.1.v X o s l.I.*.` m.W p e e e > y , e y e e e e y e ",
", 1 , > , , , , @ ; : = @ = : E V.' *.U.c.C o X c 3.y.3.h X X     X 2 n e.e.6.c X . B l.U.%./ N.` y e > , e e 1 e y t y t e y e ",
"e e e , , w e w # = ; @ # @ = ~ V.' z.U.c.Z X X 3 c c c 2 % 2 4 3 6 m 6.i.e.3.x X   C &.K.*.` N.W y > , , : e 1 = , , 1 , : , : ",
"> e , 1 , > e , > e w , t , e W V.[ z.L.l.C .   X X X % % 9 <.9.9.9.i.i.i.w.A 3     V *.I.*.` M.W e 1 e , : > > > e e , , , w , ",
"; , > , > : , : e r e e w , y W C.` *.L.l.C o           X c d.j.f.f.a.a.r.S 5 X   # s *.H.%.] N.W : : @ > : @ : 1 e r e e e e e ",
"> e e e e e e > : e : > , > , W N.` z.L.l.B o           X v d.g.g.f.s.p.,.9 X     o s &.K.&.` N.R @ ; @ @ : ; # > , e , , , , , ",
"e y e y y y y e e e e e e , e ` G.` l.L.l.C o           X 9 2.5.5.4.4.>.9 %         s &.P.&.` D.R : @ # @ > : # , e e e w e e w ",
"e y e e r e y 1 : e > > e , y W M.^ x.U.c.D o       . .   2 z l l k 6 & X         O D l.I.l.` N.W ; @ # . , ; @ > 1 e 1 , 1 1 , ",
"e y e e e e y e ; > > e > > s D ^ P @.P.&.C o       .   X 0 1.y.t.M &   . .       O V *.L.$.U ( s d > # @ @ ; @ ; > , > > > > : ",
"1 y e e e e y e , y e y e e p D H G Y A.&.D ;       .   % x w.v.v.A &     .       < G l.A.Y G H G p D ; # : @ ; 1 r y y r t e e ",
"@ > > , > : , ; e y e e y p p W [ E F B.N.W p *         X 0 ,.t.q.M %     .     - p ( N.M.G R [ W s G , : @ > , e y u y y y y e ",
"> w e e e e , > e e y , e G d W  .E L B.D.T F p -         % 3 8 7 4 X     .   - d D Y N.b.J R [ W d G > : : ; , e r e y y e y e ",
"e e e e e e e e e e , > , G d W ` ` +.V.B.T g G f - +   #   X X X X X +   O < d K d I B.N.X.' [ ~ s D > : > ; , w e w e e w r e ",
"e e , > > , , , e e e , e Y s _ | x.Q.^./.J.Y ! Q Z s g g s b b b s b Z s s D W Y P F./.^.~.-...E s H e ; > ; , e y e y y e y e ",
"e e e , , e e e ; > , , e J d W #.T.'.XX.X/.m.M.F.x.*.*.-.*.=.=.*.*.*.&.&.&.z.V.m.m./. X X].R.$.W d H , ; > ; , ; > : > > : , ; ",
"> , , , , , , > ; > e e e L d W $.E. X XXX^.Z.b.n.N.K.I.L.I.P.P.K.I.I.L.I.I.N.B.b.Z.). X X XW.$.) d G : @ , ; > , y e y y r y e ",
"; : > > > > : @ e e y e e G s Y } I.^.}.].!...J H Y @.*.%.%.&.*.&.*.*.%.l.X.Y J L  .~.'.}.^.I. .Y d G : @ > = > , y r y y t y w ",
", e e e e e e , , , , > > e p d R $.G.E.R.k.` W Y D J [ ` } { { ' ' | ] ] J D E ~ / -.R.E.G.$.W d d p > @ : @ ; w u y y y y p e ",
"e y y y y y e e > e e e e , s p s Y  .$.$.[ [ `  .J W m.D.D.D.D.V.N.C.C.M.( J  .`  . .X.$. .R s d d > ; . : ; @ ; e 1 1 w w e : ",
"e r e e e y y e > e , w , , y u d d Y W R E W W _ D G W ~ ~ ` W ~ ` ^ ` ` G D ~ W R R W W J s p p , @ # @ @ @ # : , e e , , , > ",
"e y t e r y y e ; , > > > : , : D s d d s D s d p d D D p p d p d d p d G G s d d s s d s s a p ; ; ; @ @ ; @ . > e e e e e e , ",
", e e w e e e , : e e e e e e ; e D J J J H J J H H p , > , , > e y e e y s Y H H J J J Y L d w > e e , , e e > : , e , > , , > ",
"> , , , , w , : 1 u y y u i p w ; e , , e e e > e y e , e e e , : > > , > , e : y p y y p d p e > 1 e e e e e > , e e 1 , e e e ",
", w e 1 e e 1 > , y t y y t y , ; e , e e > , ; : > , , , , , > > , : , w , , : 1 e e w e y e 1 : , e e e e e , > , e , > , , , ",
"w e e w e e e > : e e e e 1 e : e e , e e e y > : : > > > > > ; , y e e e w e e y e e e r y y e > , e , , e e , ; > , : : : > : ",
"1 e 1 , , e 1 > , r e e e e t , , e , e , , e , 1 e y e e e e e , e : : > , e , e e y y t e e t e e e > , e e > e e y e e e e e ",
"e e w , , e w > e u y y t y y e > e , , , , e , e y y y y y e e w e 1 w , > e , ; : > , , > : ; , , e , , , e , e y y y y y y e ",
"> , 1 , , , , > e y , e t t y , : e e e , > , > e y e e e e y e : e 1 e , > 1 > > e r e e r e > > e e e , > e > e e e e e e y e ",
"; : > : : : : ; e y e e t r y 1 ; , : > : : > ; e y e e y e y w = > : > > ; > = e y u y y u y e ; > : > > : > ; e r e e e e r e ",
"w e e e e e e , e y e y y e y e , e w e e e e , e y e y y e y e , e 1 e e e r , w y y r r y y w , e e e e e e , e y y r e y y e ",
"y y u y y y y e = , , , , : , : e y e y y y p e ; , > , , > , ; e y e y i u p e : w e , , e w : e y e y y y p e : > , , > , > : ",
"e e e e e e e , ; 1 , e , : , : , e , e e e y , : , > , , , w : , e 1 e t e t , > e e , , e e > , e , e e e r , : , , , , , , : ",
"e r t e e e e w , y e y e e r e e y e e t e y e , y e y e e y e 1 t e r y e y , , e e w w e e , , r e e y e y , e e e e e e e e ",
"e y y t r y r e > e , , , > w > e y r y e e y e : e , , , > e > e y t y y e y e , e e , , e e , e y y y y e y e > , , > , , , , ",
": , , > > , > : , e , 1 1 , e , ; e , , > : , : > e e e , , e , ; 1 , , > : , ; > e e , , e e , : e , , > : , : , e e , , e e 1 "
};
