/* XPM */
static const char *c2NyZWFtLXJlbW92ZWJnLXByZXZpZXc_[] = {
/* columns rows colors chars-per-pixel */
"64 64 107 2 ",
"   c #050403",
".  c #090605",
"X  c #0A0906",
"o  c #070709",
"O  c #090708",
"+  c #0D0C0C",
"@  c #100E0E",
"#  c #12110F",
"$  c #0F0D10",
"%  c #110F10",
"&  c #141314",
"*  c #181617",
"=  c #1C1917",
"-  c #171719",
";  c #191718",
":  c #1C1B1C",
">  c #201E1F",
",  c #21201E",
"<  c #1E1E20",
"1  c #211F20",
"2  c #242323",
"3  c #282627",
"4  c #262628",
"5  c #292728",
"6  c #2B2A2B",
"7  c #302E2F",
"8  c #31302E",
"9  c #312F30",
"0  c #323232",
"q  c #3C3B3B",
"w  c #413D3E",
"e  c #413F42",
"r  c #444343",
"t  c #494545",
"y  c #474749",
"u  c #494748",
"i  c #4C4B4C",
"p  c #504F4D",
"a  c #52514F",
"s  c #514F50",
"d  c #555454",
"f  c #5B5B5C",
"g  c #605E5F",
"h  c #626262",
"j  c #6B6766",
"k  c #696768",
"l  c DimGray",
"z  c #706C6B",
"x  c #737373",
"c  c #7C7B7C",
"v  c #807C7B",
"b  c #848383",
"n  c #8C8B8B",
"m  c #949496",
"M  c gray59",
"N  c #959495",
"B  c #929293",
"V  c gray60",
"C  c #98989A",
"Z  c #9A9A9C",
"A  c gray62",
"S  c #9D9998",
"D  c #A19FA2",
"F  c gray64",
"G  c #A2A2A4",
"H  c #A4A4A4",
"J  c #AAAAAA",
"K  c gray67",
"L  c #AEAEAE",
"P  c #AFAFB1",
"I  c #B1B1B3",
"U  c #B2B2B4",
"Y  c gray71",
"T  c #BBBBBB",
"R  c gray74",
"E  c #BCBCBE",
"W  c #BDBDBF",
"Q  c #BEBCBF",
"!  c #BFBDC0",
"~  c #BFBFC1",
"^  c #C0BEC1",
"/  c #C0C0C2",
"(  c #C1C1C3",
")  c #C3C3C3",
"_  c #C2C2C4",
"`  c #C3C3C5",
"'  c #C6C6C6",
"]  c gray78",
"[  c #CACACC",
"{  c #CDCDCD",
"}  c #D0D0D2",
"|  c #D5D5D7",
" . c #D7D7D7",
".. c #D6D6D8",
"X. c gray86",
"o. c #DADADC",
"O. c #DDDDDD",
"+. c #DFDFDF",
"@. c #DEDEE0",
"#. c gray88",
"$. c #E0E0E2",
"%. c #E5E5E7",
"&. c #E7E7E9",
"*. c #E8E8EA",
"=. c #E9E9EB",
"-. c gray92",
";. c #EFEFF1",
/* pixels */
": 2 2 2 2 2 1 ; ; 2 : 1 ; - 2 ; 2 2 2 2 2 2 2 : ; 2 > 1 : ; 1 ; ; 2 2 2 2 2 2 : ; 2 2 1 : ; 2 ; : 2 2 2 2 2 2 : ; 2 > > : ; 2 : ",
": 2 2 : : 1 : ; & ; - ; - & ; & : 2 2 2 > 2 > : % : * ; ; & ; % ; : 2 : : 2 2 : & ; * ; ; * ; & 2 2 2 2 2 2 2 1 @ ; * ; ; & ; & ",
"2 2 2 : : 2 2 : ; 2 2 2 2 2 2 ; : 2 2 > > 2 1 : ; 2 1 2 3 2 2 ; : 2 2 : : 2 2 : ; 2 1 2 2 2 2 ; : : : ; : : : : ; 2 1 2 3 2 2 ; ",
"2 2 2 2 : 2 2 : 2 6 2 6 0 6 0 2 1 2 2 1 > 2 2 : 2 6 3 6 0 6 9 2 2 2 2 2 : 2 2 : 2 6 2 6 0 6 6 2 : 2 2 > > 2 2 > 2 6 3 6 7 6 7 2 ",
"; : 2 : : : : * 2 4 2 2 2 2 6 2 : > > : : : : ; 1 3 1 2 5 3 6 > ; 1 2 : : : : * 2 2 : 2 6 2 6 : ; : 1 > > 1 : ; 2 6 1 2 3 2 6 1 ",
"& ; : : : ; * & 2 6 2 2 2 2 6 2 * ; : ; ; ; ; & 2 6 2 2 5 2 6 2 & ; : ; ; ; ; & 2 6 2 2 6 2 6 2 & * : ; : : * & 2 6 2 2 2 2 6 2 ",
": 2 2 2 2 2 : ; 2 6 2 6 4 2 6 2 ; : 2 2 2 2 : * 2 6 3 6 5 2 6 2 ; 1 2 : : 2 2 ; 2 6 4 6 6 2 6 2 1 2 2 2 2 2 2 > 2 6 2 6 3 2 6 2 ",
"6 6 6 6 6 6 6 2 & : : : ; * ; & 2 6 6 7 6 6 3 1 % : : : ; & ; & 2 6 6 6 6 6 6 6 & : : : ; * ; & 2 3 2 2 2 2 2 2 + : ; : ; & : & ",
"2 2 2 2 2 6 2 : ; 1 2 2 2 2 : : > 7 6 6 6 6 6 : ; : > : : > : ; 2 2 2 2 5 6 6 2 : 2 2 : : 2 2 : 2 2 2 : : 2 2 2 * : > : : 1 1 : ",
"2 2 2 2 2 6 4 2 : 2 2 2 2 2 2 : & 2 > 1 1 > 2 & > 2 2 2 2 2 2 > 2 2 2 2 6 6 6 2 2 2 2 2 2 2 2 2 2 2 2 > : 2 2 1 : 2 2 2 2 2 2 2 ",
"2 2 2 2 6 6 2 2 : : 1 : : : : : : 6 2 2 2 2 5 : ; : 1 : : 1 : ; 2 2 2 2 6 6 6 2 ; : : ; ; : : ; 1 2 2 2 2 2 2 2 : 1 > : ; : 1 1 ",
"* ; ; ; : : ; & 2 2 2 2 2 2 2 2 3 7 6 6 6 6 7 2 > 2 2 2 2 2 2 > * ; ; ; : : ; * : 2 2 2 2 2 2 : & ; : ; ; : ; * 1 2 2 2 > 2 2 2 ",
"- : : : : 2 ; * ; : : ; ; : : ; 1 5 2 2 2 2 5 1 : > 1 : > 1 > : ; : : ; : : : - ; : 2 : : 2 : ; * : : : : 1 : ; ; : 2 2 > > : ; ",
"2 2 4 2 2 6 2 2 & * ; * * ; * & 2 6 2 5 6 2 6 2 & * ; * * ; * & 2 2 2 2 2 4 2 : & * ; * * ; * & > 2 2 2 2 2 2 > + * : : : ; * & ",
"; : : : : : : ; : 2 2 2 2 2 2 : 2 6 2 6 6 2 6 2 > 2 2 2 2 2 2 > : : : : : : : * : 2 2 2 2 2 2 : ; : : : : : : * ; 2 2 2 2 2 2 2 ",
": 2 2 : : 2 2 1 * : 2 2 2 2 : * & ; & : : & ; & 2 3 6 3 3 6 3 2 2 2 2 1 2 2 1 ; 2 6 6 6 6 6 6 2 2 2 2 2 2 2 2 > > 2 5 2 2 6 6 5 ",
": 1 1 : : > : ; O + * . & @ * + O + + . + * * O 2 6 : 2 2 6 6 2 : 2 2 - ; 2 : : 2 6 2 4 2 2 6 2 ; : 1 : : 1 : ; 2 2 2 1 2 6 6 2 ",
"* ; ; ; ; ; * & + % ; O & & ; % + * * + % ; ; & 2 6 2 2 5 2 6 1 ; ; - < & < ; & 2 6 2 2 2 2 6 2 % ; ; * * ; ; % 2 2 2 2 2 6 6 2 ",
": 1 2 2 2 2 : ; + + & O @ @ & + O & + + + * * @ 2 6 2 6 6 6 0 : & 2 2 - 2 2 : : 2 6 2 6 6 2 6 2 * > 2 1 1 2 > * 2 2 5 3 6 6 6 2 ",
"2 6 7 6 6 6 6 2 O + + O + + @ + . + O + . & + + * ; 1 ; O + O + + o + o O + 6 2 & : ; : : ; : & 1 6 7 6 6 7 6 1 & ; : ; : : : * ",
"2 3 6 6 6 6 2 : & & & & & * & & + * + * O - & * * + . + . O : 2 4 4 2 4 * O & ; * 2 : 1 1 : 2 * : 2 6 5 5 6 2 : * : : : : : : ; ",
": 1 2 2 2 2 : ; * ; * ; & ; * * & ; + : + ; & ; ; & . . + q V R ` ) ` R b 2 + 0 2 6 2 5 6 2 6 2 * > 2 1 1 2 > * > 2 3 2 2 2 2 2 ",
"2 2 2 2 2 2 2 : * ; & : & ; & * & ; + : O : & : & O &   ; B X.-.&.*.&.;.$.h . : ; 2 ; : : ; 2 ; : 2 2 2 2 2 2 : ; : 1 : ; : : : ",
"5 6 6 5 5 6 6 2 ; : & : % : & ; & ; + 2 + : & 1 1 0 +   * H +.J P @.&.[ A x 6 + : 2 : : : : 2 : 2 6 6 2 2 6 6 2 : 2 2 > : > 2 1 ",
"2 2 2 2 3 6 2 : * * ; ; * & & * * ; O 2 + : * ; : q & . & H { q r o.%.N 2 x h & : 2 2 2 : : 2 2 2 5 2 2 3 2 6 : ; 2 1 1 : ; 2 : ",
"2 2 2 2 5 6 2 : & * * * * & * * & ; O : O : & - * q & O d Y B ; q [ *.V + x k & 2 2 ; : ; * ; & 2 6 3 6 6 6 6 2 & : ; : ; * : & ",
"2 2 3 3 6 6 2 : & * * * * * * ; & ; + ; + : & 2 0 & + i L n 6 O q ..&.N ; q 0 * q 6 : 2 6 2 2 : > 3 2 3 5 2 5 : : 3 2 5 6 2 3 : ",
"* ; : : : : ; % & & * & & & & & & ; + * + ; * 6 ;   i T n :     y [ $.m * . . * i 0 2 6 0 6 0 2 * : ; > > : > & 5 9 6 7 0 7 0 2 ",
"; : : : : > : & + & & + + + + + + * + + O + & 0 + . x  .f ; * 6 Z R G ` l ; O * t 7 : 2 2 2 6 : * 2 : 1 1 : 2 * 2 5 1 2 2 2 6 > ",
"2 2 3 2 2 2 2 > % * * @ + @ @ O @ * & + O + * 0 &   h ] F n N L  .) I $.) b q * t 0 2 4 2 2 6 2 : 2 1 2 2 : 2 : 2 6 2 2 2 2 6 2 ",
": > : ; : : : : % * * @ + & & + + * ; O + * * 2 : + 2 r q i J O.~ d c } N e 2 * t 0 2 6 2 2 6 2 : 2 > 1 : : 2 : 2 6 5 6 5 2 6 2 ",
"2 2 2 : : 1 2 1 O & & O O + + O O & * . O & + + 0 6 6 * O O q ] P : f Z 6 .   * q 2 - 2 ; * : & : 2 : : : ; 2 > % : : > : * : * ",
"; 2 : > : ; 2 : ; 2 : 2 2 : 2 ; ; 2 3 6 5 2 2 : : 2 2 r +   : N U e d n &   X 6 0 6 3 > 1 3 2 ; : > 2 2 > ; * : ; 1 2 : : : 1 : ",
"& : ; : ; * : * : 2 2 2 2 2 2 : * 2 1 2 2 : 2 * 2 2 0 q +     q ! D j b * O 0 0 > , , : : 3 2 * % & * * & & & & > 2 3 2 2 2 2 2 ",
"; 2 2 2 2 2 2 ; ; 2 ; : : ; 2 ; > 5 2 3 5 2 5 : ; 2 q * X .   2 R ^ N n + @ a :   + # O + * * O . + + + + & & + ; : 2 : : : : : ",
"2 6 2 6 6 6 6 2 : 2 1 2 2 : 2 : 3 7 2 6 6 6 6 2 : 6 r O X     : c n n g X # p 3 X # & + + ; ; + O @ @ O + ; * + : 2 2 2 1 2 2 1 ",
"2 6 2 2 4 2 6 1 * : ; : : : 1 * 2 6 2 2 3 2 6 > ; : t + . .   O & * & . . & p 2 + & & + & ; ; * + & % O + ; * + ; > 2 > : > > : ",
"2 6 2 2 2 2 6 2 & ; ; : ; * : & 2 6 2 3 5 2 6 2 + ; r O   O X X       +   + d > O X O . + @ + + + @ + O + & & O & ; : ; ; ; ; * ",
"1 6 2 2 2 2 6 2 2 6 2 6 6 2 6 2 2 6 2 6 2 2 6 2 ; 6 i O X O   . O O O X   # i 2 & & % + & * & & + @ % @ + @ & & > 3 6 6 3 5 2 2 ",
"+ ; ; : ; * : & 2 6 2 2 2 2 6 2 & : : : ; * : * 2 6 u + .   X   . . X O   + t * & * & % * ; * * & & * * * & * : 2 6 7 6 6 6 6 2 ",
"; 1 2 2 2 2 : ; 2 4 2 2 2 2 2 1 ; : 2 : > 2 > ; 2 6 t @ @ = 2 : #   X . X * t : * ; & : % ; & * & ; % ; & ; % : 2 3 2 6 6 2 6 2 ",
"2 2 2 2 2 2 2 2 2 2 : ; ; : 2 2 2 2 2 2 2 2 2 2 2 0 r @ = v S n 7 O   X : 6 u 3 & * @ ; @ ; & & & ; & ; & ; & : 1 2 1 2 2 1 3 2 ",
"1 2 : ; ; : 1 : 2 2 2 : : 2 2 2 : > : ; ; : > : > 2 2 > * z j t = X   + q 8 2 ; & * @ * @ ; & * % : & ; & : & : 2 6 2 6 6 2 6 2 ",
"2 2 2 : : 2 2 2 & ; : : 2 2 : * : 2 2 > > 2 2 : * 2 2 w @ & @ O   . O O i 6 : : & * & ; % : * * + : & * & : & : & ; * ; ; * : & ",
"; : : : ; : : ; & ; 1 2 2 2 : * * : > > > > : * ; 2 > 7 + O O   X   . X t , > * & ; & ; + : * * + : & * % : & ; : 6 2 6 6 3 6 2 ",
"& * ; ; ; ; * + 2 2 2 2 2 2 2 2 @ * ; : : ; * @ 2 7 0 5 @ O O X X     + r : * @ $ ; % & O ; & + + : & & + ; % * : 6 3 6 6 5 6 1 ",
": 2 4 2 2 2 2 : : 2 : ; ; : : : : 2 3 3 3 3 2 > 2 5 6 6 @     X   X   + t 0 2 2 $ ; % % . * + O + : & & + * + & 1 7 6 6 6 6 0 2 ",
"2 6 6 6 6 6 2 2 ; 2 2 2 2 2 : ; 2 5 6 3 3 6 5 2 * 2 : 2 + . +   O .   + q r 6 2 % : & & O * @ O + : & % O * + + & 2 > > 1 1 2 * ",
"2 3 2 2 2 6 6 2 ; 2 : : : : 2 ; 1 6 2 2 2 2 6 2 : : 2 2 ; + . . O   O O + i 0 : & : ; + O @ & + + & & O O @ + O * : 2 2 : : : ; ",
"2 6 5 2 3 6 6 2 & : ; ; ; ; : & 2 6 6 6 6 6 6 2 2 2 2 2 ; @ O O O O O O O 0 s g i r 5 @ O & & . O & & + O + + O ; 2 2 2 2 2 2 : ",
": 2 2 1 2 2 2 : * 2 2 2 2 2 2 * : 2 2 2 2 2 2 : ; : : : : ; ; ; ; : * ; * ; 0 q q r q 6 2 3 2 ; ; 2 2 2 1 2 2 ; * : 2 : ; : : ; ",
"; : : : : 1 : * 1 7 6 7 7 6 7 1 * : ; : : ; : * ; 2 2 2 2 2 2 2 * : & ; 2 > 2 ; 2 6 9 6 6 0 6 2 ; : 2 2 2 2 2 ; : 2 2 1 : 2 2 2 ",
": 1 2 > 2 2 > ; : 6 6 6 6 6 6 : * 2 : 2 2 : 2 * ; : 1 : : : : * ; 2 ; : > 2 : & 2 2 : : 2 6 3 1 * : 2 2 2 2 2 : ; : 2 : ; : : : ",
"1 2 2 1 2 2 2 ; * 2 2 2 2 2 2 * ; 2 : 2 2 : 2 : & - ; ; ; : ; & : 3 2 2 2 2 2 2 2 2 5 6 5 2 5 6 - : 2 : 1 2 2 : & ; : * * - ; * ",
"> 2 > : : 2 > ; : 5 2 2 2 2 5 : ; 2 : 2 2 : 2 : 2 2 4 2 2 2 2 : : 2 ; : ; ; 2 : 2 2 3 5 5 2 2 2 ; 2 2 : : 2 2 : 2 2 6 2 2 2 2 2 ",
"2 2 1 : : 2 1 ; 2 7 6 6 6 6 7 2 : 2 : : : : 2 : 2 2 6 6 6 6 6 2 1 2 : : : : 5 : & * : : ; * * & : 2 2 : : 2 2 : 2 6 6 6 6 6 6 2 ",
"; : > : : : : ; 2 6 : 2 5 5 6 : * 2 2 2 : ; : ; 2 6 2 2 2 2 6 2 * 2 > 2 : ; > ; ; 2 3 2 2 3 2 ; ; 2 2 2 : ; 2 ; 2 4 2 2 2 2 6 2 ",
"& * ; * * * * & 2 6 2 2 5 3 6 > & : - ; * * ; & 2 6 2 2 6 2 6 1 % ; * ; ; & ; % 2 6 7 6 6 7 6 2 & ; * ; ; * ; & 2 4 2 2 2 2 4 2 ",
"1 2 2 2 2 2 2 : 2 6 2 6 6 2 6 2 : 2 2 2 2 2 4 : 2 6 2 6 6 2 6 2 : 2 > 2 2 2 3 : 1 6 6 3 3 6 6 1 : 2 2 2 2 2 2 : 2 6 6 4 2 6 6 2 ",
"6 6 7 6 6 6 6 2 % : : : : * : * 2 6 2 6 6 6 0 2 & : ; : : ; : & 2 6 2 6 9 7 0 2 * 1 2 : : 2 1 * 2 6 2 6 6 6 0 2 * ; : : ; : ; * ",
"2 2 2 2 2 2 2 : & > : 2 : * : * : 2 : 2 2 2 6 : * : ; : : : 1 * : 2 > 2 5 2 5 : ; 2 2 : : 2 2 ; : 2 : 2 2 2 4 : - : : : : : : - ",
"2 3 5 2 2 2 2 1 : 6 2 6 2 2 3 2 2 6 2 2 5 2 6 2 : 6 2 6 2 2 6 2 > 5 2 3 6 2 6 : : 2 2 1 1 2 2 : : 2 2 2 6 2 6 : 2 2 2 2 2 2 2 2 ",
"2 6 6 5 3 6 3 2 ; 2 : : : ; 1 ; 2 6 2 6 2 2 6 2 * 2 : : : ; 2 ; 2 6 5 6 6 2 6 2 : 2 2 : : 2 2 : 2 6 6 6 6 2 6 2 ; : : ; : : : : ",
"* : : ; ; : ; * : 2 : > > : 2 : & 2 : : ; * : * ; 2 2 2 : : 2 : & > : : ; * : & ; 2 2 : : 2 2 : * 2 : : ; * : * : 2 2 : : 2 2 1 "
};
